<svg xmlns="http://www.w3.org/2000/svg" viewBox="0 0 866.533 997.984">
  <path fill="#0c0b0a" d="M468.15.454c54.362-5.032 116.49 32.828 160.902 60.286 7.721 4.773 26.833 16.387 32.916 22.897-.159 10.027-2.98 18.137-5.679 27.701 9.066-.52 17.967-1.109 26.73 1.986 20.503 7.24 34.55 27.91 34.32 49.582-.059 5.535-1.184 9.712-3.023 14.915l10.874 1.085c15.104 1.583 44.6 4.63 54.2 17.004 1.622 2.09 3.853 6.315 4.126 9.062 2.516 25.367.068 53.97-2.14 79.246-1.573 18-7.97 23.534-20.602 33.518-.039 8.824-.846 17.32-.892 25.951 6.062 3.775 13.55 7.421 19.941 11.052 63.345 35.98 102.09 112.117 80.861 184.06-3.91 13.254-9.08 31.508-21.91 38.914-13.32 7.06-26.273 1.241-36.109-7.893-22.397-20.8-35.733-45.129-50.333-71.645-1.744 10.841-1.598 23.963-2.39 35.005-5.458 76.03-9.977 152.22-16.352 228.17l-3.909 46.778c-.56 6.033-.999 15.621-2.229 21.091 6.55 15.604 9.405 37.551 4.772 54.156-7.36 26.382-28.58 45.332-51.794 58.075-100.855 55.364-286.795 72.154-395.547 41.044-40.794-10.277-75.239-33.739-72.982-80.272.231-4.778 1.91-11.496.543-15.947-3.663-11.925-7.094-23.92-10.659-35.875-2.573-8.907-5.508-17.605-8.236-26.449l-24.668-81.995-28.94-98.595c-7.41-26.01-14.44-52.506-22.228-78.355-5.299 30.922-22.805 71.232-44.163 95.357-14.81 14.18-30.705-.096-40.43-10.52-34.457-36.943-39.824-88.6-26.199-135.587 9.917-34.195 30.094-64.306 56.226-88.622 3.46-3.218 7.073-6.307 10.53-9.53-.936-3.187-1.843-6.256-2.645-9.48-38.898-7.759-40.342-16.185-52.448-50.59l-10.39-30.317c-1.37-4.036-5.926-16.119-5.9-19.625.238-32.15 58.754-49.433 80.007-56.52-6.63-11.596-9.857-23.999-10.146-37.71.071-15.758 4.025-38.86 14.686-50.916 10.712-12.112 31.121 10.03 38.333 17.787 2.51-7.134 5.008-13.806 8.287-20.632 21.904-45.607 64.963-72.91 115.361-73.879-2.617-7.925-9.155-22.043-9.663-29.594-1.166-17.34 16.1-15.783 26.35-12.972 29.587 8.117 50.227 16.705 72.51 37.984 9.188-12.978 17.19-19.95 28.223-30.656C395.42 20.678 427.353 4.005 468.15.455z"/>
  <path fill="#99423f" d="M741.852 321.598c3.431-1.395 6.596-3.225 9.841-5.006-.267 27.957-2.883 61.515-4.944 89.263l-4.06 61.793-19.509 282.323-2.53 35.33c-.425 5.64-.674 12.55-1.357 18.015-.106 5.551-.715 11.532-.926 16.74-.633 15.676-1.994 20.625-9.445 34.153l-2.036 3.978c-4.149 4.176-5.286 5.072-10.573 7.9-24.383 9.433-45.997 22.392-71.768 30.763-110.695 35.96-242.643 52.248-356.224 22.307-.563-5.162-1.223-15.134-1.14-20.21l.693-.308c-2.024-8.849-4.836-17.888-7.02-26.822-10.552-43.158-22.184-86.146-33.928-128.999l-56.102-204.575-21.263-75.804c-3.202-11.6-6.75-23.67-9.49-35.317l-4.915-19.358c20.454 1.268 40.054 2.223 60.571 1.59 7.7-.237 15.477.008 23.185-.576 3.86 16.466 7.575 32.834 12.35 49.068l-4.219 3.21c-24.896 20.785-35.21 43.32-38.602 75.646-2.452 23.375 7.974 54.327 23.33 72.218 2.067 2.408 12.152 12.567 12.702 13.403 12.794 10.128 22.055 14.544 37.856 18.655 12.152 41.712 22.61 84.196 32.816 126.451 11.082 45.88 23.386 93.176 33.47 139.13l.727-.27c-16.467-78.246-35.34-156.233-53.834-234.018-2.419-10.173-4.885-20.263-7.153-30.475 21.344 2.88 42.947-5.223 58.432-19.808 9.65-9.087 15.207-18.614 21.594-30.002 2.458 13.587 6.77 31.344 10.045 44.858-4.143 1.616-3.857 3.848-9.67 4.137-.735.866-1.013 1.627-1.03 2.837-.288 19.464 10.117 43.13 22.322 57.456 20.182 23.256 47.732 34.394 77.632 37.287 56.28 5.444 92.99-41.615 97.072-93.702.862-10.989-.03-27.65-7.859-36.448-5.195-1.098-12.34-1.055-17.677-1.34-20.958-1.125-40.669.618-61.453 2.311-2.513-33.93-6.427-68.46-10.065-102.305-2.87-26.694-5.248-53.724-9.516-80.234-1.399-11.388-2.677-24.49-4.638-35.654 1.81-.583 20.572-2.689 24.551-3.343 25.193-4.146 50.388-7.65 75.58-11.947.425 7.306 1.025 16.79.74 24.104-.03 4.665-.436 27.992 1.122 31.673-.392 2.1-.448 2.211-.037 4.264-18.472 30.973-22.249 56.056-13.542 91.475 4.787 19.47 19.03 44.49 32.887 58.978.912 22.984-.544 46.14.172 69.17 2.088 67.171 8.085 134.095 10.931 201.287.386 1.29.571 1.847.783 3.195.087-16.273-.865-32.457-1.108-48.712-.444-29.696-2.2-59.283-3.505-88.94l-4.727-133.333c24.435 19.541 52.503 19.984 80.01 6.493-.75 54.586 1.164 110.981 1.396 165.717l.054 59.388c-.053 10.45-.65 27.58.45 37.514.401-.48.253-3.206.26-4.079l-.425-.525c-.184-2.172-.6-8.039.494-9.668 1.995-83.487 3.921-168.664 4.132-252.144 25.182-17.24 32.946-36.243 41.018-64.658.561-12.168.555-21.787-.209-33.862-5.533-33.817-18.145-57.208-46.43-76.81-.406-1.894-.439-5.023-.52-7.022-.727-17.982-1.606-36.04-1.946-54.03 17.302-4.39 32.24-7.592 49.488-12.838 7.586-1.914 15.354-4.697 22.722-7.329-.264 6.168-.745 17.06-1.56 23.117l-7.433 231.251-2.324 75.135c-.177 4.74-.692 25.932-1.482 29.76 1.31 6.77.555 10.79.414 17.505-.709 33.508-2.382 66.935-4.037 100.41l1.135 1.791c.327-14.038 1.624-28.264 2.507-42.3 4.597-73.102 8.397-146.2 10.428-219.427l1.775-93.433c.727-32.298 1.067-64.726 1.475-97.036.112-8.925.281-18.003-.433-26.899 11.308-4.126 22.434-8.759 33.502-13.483z"/>
  <path fill="#9e6f5c" d="M135.156 407.764c20.454 1.268 40.054 2.223 60.571 1.59 7.7-.237 15.477.008 23.185-.576 3.86 16.466 7.575 32.834 12.35 49.068l-4.219 3.21c-24.896 20.785-35.21 43.32-38.602 75.646-2.452 23.375 7.974 54.327 23.33 72.218 2.067 2.408 12.152 12.567 12.702 13.403.17 3.104 8.673 22.614 10.306 26.975 26.302 70.236 46.554 145.441 36.415 220.991-1.17 8.727-1.055 19.31-2.734 27.786l-.586.564c-2.024-8.849-4.836-17.888-7.02-26.822-10.552-43.158-22.184-86.146-33.928-128.999l-56.102-204.575-21.263-75.804c-3.202-11.6-6.75-23.67-9.49-35.317z"/>
  <path fill="#872828" d="M135.156 407.764c20.454 1.268 40.054 2.223 60.571 1.59 7.7-.237 15.477.008 23.185-.576 3.86 16.466 7.575 32.834 12.35 49.068l-4.219 3.21c-19.62-15.166-62.87-27.653-86.973-33.934z"/>
  <path fill="#c49681" d="M685.163 342.536c7.586-1.914 15.354-4.697 22.722-7.329-.264 6.168-.745 17.06-1.56 23.117l-7.433 231.251-2.324 75.135c-.177 4.74-.692 25.932-1.482 29.76-1.21 9.88-4.327 68.802-6.257 72.832l-.517-.068c-.28 2.2-.38 6.791-1.496 8.022-.787-3.284-.737-10.844-.843-14.514l-.734-25.712c-1.525-54.058-.75-107.22-.415-161.26l.335-29.123c.051-4.22.357-13.73-.379-17.549.561-12.168.555-21.787-.209-33.862-5.533-33.817-18.145-57.208-46.43-76.81-.406-1.894-.439-5.023-.52-7.022-.727-17.982-1.606-36.04-1.946-54.03 17.302-4.39 32.24-7.592 49.488-12.838z"/>
  <path fill="#99423f" d="M635.675 355.374c17.302-4.39 32.24-7.592 49.488-12.838.634 6.444.79 12.346.714 18.815.344 33.941-.375 68.651-.422 102.646-.007 4.598-.148 26.334-.884 29.24-5.533-33.818-18.145-57.209-46.43-76.812-.406-1.893-.439-5.022-.52-7.02-.727-17.983-1.606-36.042-1.946-54.03z"/>
  <path fill="#872828" d="M635.675 355.374c17.302-4.39 32.24-7.592 49.488-12.838.634 6.444.79 12.346.714 18.815-21.064 9.09-42.169 15.938-46.117 41.642-.688 4.473-1.136 8.936-1.62 13.432-.405-1.893-.438-5.022-.519-7.02-.727-17.983-1.606-36.042-1.946-54.03z"/>
  <path fill="#99423f" d="M685.163 342.536c7.586-1.914 15.354-4.697 22.722-7.329-.264 6.168-.745 17.06-1.56 23.117-.046-2.453-.114-4.907-.07-7.36-4.648 2.851-15.343 9.28-20.378 10.387.076-6.469-.08-12.37-.714-18.815z"/>
  <path fill="#e7d09b" d="M741.852 321.598c3.431-1.395 6.596-3.225 9.841-5.006-.267 27.957-2.883 61.515-4.944 89.263l-4.06 61.793-19.509 282.323-2.53 35.33c-.425 5.64-.674 12.55-1.357 18.015-.106 5.551-.715 11.532-.926 16.74-.633 15.676-1.994 20.625-9.445 34.153-.976-2.227 5.812-76.307 6.375-83.993 8.271-112.998 13.308-226.273 20.197-339.365l4.7-71.177c.606-9.46 2.25-29.214 1.658-38.076z"/>
  <path fill="#e7d09b" d="M719.293 803.316c-.383-3.07-.406-9.414-.529-12.818l-.123 1.001c-.505-10.893.353-27.266 3.093-37.876l-.258 1.262c1.078-2.08-.137-2.475 1.704-4.914l-2.53 35.33c-.425 5.64-.674 12.55-1.357 18.015z"/>
  <path fill="#872828" d="M433.544 391.19c1.81-.584 20.572-2.69 24.551-3.344 25.193-4.146 50.388-7.65 75.58-11.947.425 7.306 1.025 16.79.74 24.104-31.068 3.856-67.663 14.477-96.233 26.84-1.399-11.388-2.677-24.49-4.638-35.654z"/>
  <path fill="#511a1b" d="M692.598 814.176c.176 4.225-.7 15.788-.998 20.496-.515 8.13-.804 17.11-1.475 25.13-.172-7.692.09-14.726.385-22.404.31-8.03.103-17.07.953-25.014z"/>
  <path fill="#872828" d="M329.342 906.288c.655 1.433 3.39 13.951 3.185 15.058-1.093-1.633-3.827-12.82-3.912-14.788z"/>
  <path fill="#511a1b" d="M565.948 856.85c.386 1.29.571 1.847.783 3.195.515 2.063.655 5.478.78 7.701l-.837.41.273.324c-1.214-2.893-1.236-8.467-.999-11.63z"/>
  <path fill="#e7d09b" d="M686.816 775.256c1.116-1.23 1.216-5.823 1.496-8.022l.517.068c-.286 3.752-.479 7.854-1.296 11.493l-.386.266c-.452-1.874-.424-1.859-.33-3.805z"/>
  <path fill="#511a1b" d="m639.56 854.093-.424-.525c-.184-2.172-.6-8.039.494-9.668.136 2.085.29 8.237-.07 10.193z"/>
  <path fill="#0c0b0a" d="M407.836 907.653c-.057-2.877-2.236-13.354-2.892-16.804l-6.536-34.062c-6.96-35.506-13.045-71.203-20.547-106.578-2.066-9.74-6.102-19.86-8.39-29.924 14.668 31.878 17.06 52.828 22.597 87.305l11.283 67.14c1.67 9.998 3.1 22.533 5.191 32.185zm60.371-158.974c4.797 18.067 7.348 42.97 9.412 61.798l7.858 71.281-1.12.045c-3.25-28.524-7.615-57.042-11.009-85.562-1.808-15.196-5.236-32.278-5.14-47.562z"/>
  <path fill="#511a1b" d="m484.357 881.803 1.12-.045c.543 2.846 2.246 22.681 2.088 25.4l-.428-.154c-.297-1.877-.202-4.478-.433-5.646-1.21-6.129-1.937-13.282-2.347-19.555zm-75.815 25.112c.404 2.372.883 4.101.514 6.471l-.293.211-.504-1.23 1.055-.114-1.068.047c-.216-1.626-.306-3.009-.41-4.647z"/>
  <defs>
    <linearGradient id="a" x1="500.011" x2="444.053" y1="350.475" y2="186.118" gradientTransform="translate(-78.749 -12.256)" gradientUnits="userSpaceOnUse">
      <stop offset="0" stop-color="#5C7379"/>
      <stop offset="1" stop-color="#7B8A8B"/>
    </linearGradient>
  </defs>
  <path fill="url(#a)" d="M353.054 75.186c29.083-34.385 64.404-59.372 110.376-63.713 50.407-4.76 95.463 19.246 137.891 43.267 10.802 6.115 42.646 24.4 50.69 33.101-.59 5.692-5.207 27.724-7.11 33.828 1.105.983 1.18 1.125 2.476 1.784 8.784-4.91 23.508-5.655 32.684-1.354 17.491 5.812 30.262 25.053 28.167 43.39l-.088.827-.06.497c-.944 6.746-4.568 13.045-7.623 19.15 20.018 1.621 113.71 8.703 49.301 38.812-2.205 1.03-4.54 2.23-6.797 3.1-6.27 6.41-41.256 16.523-51.17 19.26-83.72 23.106-170.047 34.817-256.004 46.032-11.5 1.346-23.05 2.846-34.564 4.07-89.284 9.49-179.412 18.562-269.252 19.604-18.595.215-94.392.125-107.928-7.87l-2.052-.685c-13.836-4.58-6.538-14.824 1.654-20.717 16.74-12.04 37.18-18.73 56.722-24.676 3.675-1.176 7.477-2.34 11.108-3.612l4.237 4.721 2.623 2.531c.86.587 1.77 1.177 2.592 1.808l2.128-.829c6.651-4.69 18.628-9.46 26.446-12.588 1.277-.65 2.576-1.26 3.868-1.879 6.01-2.768 13.925-6.262 20.145-8.246l1.95-.936c1.854-.607 1.75-.406 2.397-1.904-4.822-12.32-8.828-22.245-16.52-33.266-1.608-2.036-2.85-4.238-4.197-6.459-1.195-1.926-2.22-3.74-3.694-5.464-2.796-4.859 1.251-13.02 2.93-17.982 18.266-54.026 68.353-88.318 125.317-85.382l2.952.277c-5.324-10.017-14.256-29.11-15.624-40.066-.07-1.726-.306-2.527.675-3.92 3.977-2.574 29.065 5.517 34.02 7.786 17.244 5.22 44 21.768 51.756 38.53l1.155 1.777c.997-.628 11.048-18.142 16.423-22.604z"/>
  <path fill="#7c5219" d="M353.054 75.186c29.083-34.385 64.404-59.372 110.376-63.713 50.407-4.76 95.463 19.246 137.891 43.267 10.802 6.115 42.646 24.4 50.69 33.101-.59 5.692-5.207 27.724-7.11 33.828 1.105.983 1.18 1.125 2.476 1.784-2.067 1.527-4.022 3-6.185 4.397-.5-5.352-.56-8.657-.409-14.048.222-5.88-.157-7.69-.968-13.398-2.258-16.767-17.48-7.26-26.483-2.607-.87.508-3.753 2.285-4.5 2.614-4.39 2.884-9.336 6.3-13.765 9.011a266.198 266.198 0 0 0-9.555 7.515c-.786.74-2.214 2.154-3 2.77-7.025 6.647-11.205 11.095-14.652 20.381l-.283 2.296c-7.2-.675-25.769-7.336-33.605-9.755-34.095-10.529-57.075-12.185-92.344-9.53-.665 5.505-1.74 9.497-2.624 14.74-1.96-.025-5.39.121-7.092-.51-.946.03-1.82-.204-2.768-.379l-.67.232c-8.108-1.858-23.254 3.208-31.377 4.986l-4.659 2.055c-1.556 1.167-3.966 2.132-5.79 2.96-5.426 2.988-11.484 5.847-16.642 9.07-1.349.972-3.52 2.434-4.676 3.532-1.088 1.392-.987 1.362-2.497 2.242l-1.977 1.655c-4.645 3.596-8.517 6.664-12.935 10.558l-3.11 2.502c-3.647 3.447-11.65 10.917-14.26 14.893-.188 1.613-2.525 3.461-3.95 5.014-5.39 6.842-16.19 18.907-19.249 26.296-10.36-1.97-32.647-.915-43.714-.56l-1.29 1.852-3.68.967c-5.919.385-11.632 1.172-17.34 1.558-5.783 1.214-26.149 3.971-29.584 5.697-2.97-1.108-5.889-1.93-8.928-2.824-4.6-1.286-12.589-2.965-17.23-3.589-2.9.084-6.093-.283-8.333 1.298l-1.518 1.96c.153 2.91.223 4.464.814 7.38l.456 3.975c-5.425.784-12.44 3.295-17.714 5.156-.275-1.148-.6-2.296-.908-3.437l-.522-.419c-4.822-12.32-8.828-22.245-16.52-33.266-1.608-2.036-2.85-4.238-4.197-6.459-1.195-1.926-2.22-3.74-3.694-5.464-2.796-4.859 1.251-13.02 2.93-17.982 18.266-54.026 68.353-88.318 125.317-85.382l2.952.277c-5.324-10.017-14.256-29.11-15.624-40.066-.07-1.726-.306-2.527.675-3.92 3.977-2.574 29.065 5.517 34.02 7.786 17.244 5.22 44 21.768 51.756 38.53l1.155 1.777c.997-.628 11.048-18.142 16.423-22.604z"/>
  <path fill="#e7d09b" d="M357.987 102.802c2.88-4.972 5.545-11.758 8.407-17.24C389.461 41.39 446.257 15.685 495.1 25.087c43.782 8.428 89.578 33.585 128.494 55.984 5.26 3.344 13.071 7.61 17.186 11.897-.118 3.11-.08 4.371-.965 7.436-2.258-16.767-17.48-7.26-26.483-2.607-.87.508-3.753 2.285-4.5 2.614-4.39 2.884-9.336 6.3-13.765 9.011a266.198 266.198 0 0 0-9.555 7.515c-.786.74-2.214 2.154-3 2.77-7.025 6.647-11.205 11.095-14.652 20.381l-.283 2.296c-7.2-.675-25.769-7.336-33.605-9.755-34.095-10.529-57.075-12.185-92.344-9.53-.665 5.505-1.74 9.497-2.624 14.74-1.96-.025-5.39.121-7.092-.51-.946.03-1.82-.204-2.768-.379l-.67.232c-8.108-1.858-23.254 3.208-31.377 4.986l-4.659 2.055c-1.556 1.167-3.966 2.132-5.79 2.96-5.426 2.988-11.484 5.847-16.642 9.07-1.349.972-3.52 2.434-4.676 3.532-.798-3.729-2.496-4.784-3.252-9.54l-1.07.343c-2.119-1.009-9.267-11.222-11.378-13.959.755-9.75 3.44-22.989 7.196-31.988.278-1.465-.067-.854 1.161-1.839z"/>
  <defs>
    <linearGradient id="b" x1="472.106" x2="507.517" y1="160.726" y2="68.431" gradientTransform="translate(-78.749 -12.256)" gradientUnits="userSpaceOnUse">
      <stop offset="0" stop-color="#396024"/>
      <stop offset="1" stop-color="#5B9442"/>
    </linearGradient>
  </defs>
  <path fill="url(#b)" d="M431.711 50.412c3.06.672 3.822 1.087 6.551 2.638 2.177 5.168 4.744 19.033 4.472 24.714.195 1.663.447 3.397.496 5.058 1.14 10.988.481 23.115-.713 34.073-.502 1.687-.692 4.378-.889 6.204-.665 5.505-1.74 9.497-2.624 14.74-1.96-.025-5.39.121-7.092-.51-.946.03-1.82-.204-2.768-.379l-.67.232c-8.108-1.858-23.254 3.208-31.377 4.986l-4.659 2.055c-1.556 1.167-3.966 2.132-5.79 2.96-5.426 2.988-11.484 5.847-16.642 9.07-1.349.972-3.52 2.434-4.676 3.532-.798-3.729-2.496-4.784-3.252-9.54l-1.07.343c-2.119-1.009-9.267-11.222-11.378-13.959.755-9.75 3.44-22.989 7.196-31.988.278-1.465-.067-.854 1.161-1.839l.478 1.386c1.095-.189 8.321-8.877 10.124-10.822 8.643-9.322 17.897-16.223 28.497-23.039 3.342-2.4 9.178-7.609 12.746-8.357 1.652-.653 3.732-2.187 5.261-3.214 6.46-4.336 9.012-6.482 16.618-8.344z"/>
  <defs>
    <linearGradient id="c" x1="521.224" x2="448.173" y1="122.302" y2="111.954" gradientTransform="translate(-78.749 -12.256)" gradientUnits="userSpaceOnUse">
      <stop offset="0" stop-color="#182419"/>
      <stop offset="1" stop-color="#1F3417"/>
    </linearGradient>
  </defs>
  <path fill="url(#c)" d="M431.711 50.412c3.06.672 3.822 1.087 6.551 2.638 2.177 5.168 4.744 19.033 4.472 24.714.195 1.663.447 3.397.496 5.058 1.14 10.988.481 23.115-.713 34.073-.502 1.687-.692 4.378-.889 6.204-.665 5.505-1.74 9.497-2.624 14.74-1.96-.025-5.39.121-7.092-.51-.946.03-1.82-.204-2.768-.379 6.183-17.875 5.562-43.773 4.058-62.63-.404-5.057-2.273-14.32-1.362-18.678-24.832 6.962-49.85 43.423-58.917 66.608 1.8 1.886 2.943 5.35 3.841 7.87 2.35 6.593 5.695 11.474 9.884 17.063-5.426 2.988-11.484 5.847-16.642 9.07-1.349.972-3.52 2.434-4.676 3.532-.798-3.729-2.496-4.784-3.252-9.54l-1.07.343c-2.119-1.009-9.267-11.222-11.378-13.959.755-9.75 3.44-22.989 7.196-31.988.278-1.465-.067-.854 1.161-1.839l.478 1.386c1.095-.189 8.321-8.877 10.124-10.822 8.643-9.322 17.897-16.223 28.497-23.039 3.342-2.4 9.178-7.609 12.746-8.357 1.652-.653 3.732-2.187 5.261-3.214 6.46-4.336 9.012-6.482 16.618-8.344z"/>
  <path fill="#e7d09b" d="M397.086 70.327c-.473 2.191-1.996 3.413-3.613 4.994 1.47-.38 1.42-.274 2.915.14-15.762 18.83-27.098 36.267-32.462 60.972-1.177 5.421-1.013 9.256-1.848 13.811l-1.07.344c-2.119-1.009-9.267-11.222-11.378-13.959.755-9.75 3.44-22.989 7.196-31.988.278-1.465-.067-.854 1.161-1.839l.478 1.386c1.095-.189 8.321-8.877 10.124-10.822 8.643-9.322 17.897-16.223 28.497-23.039z"/>
  <path fill="#916618" d="M397.086 70.327c-.473 2.191-1.996 3.413-3.613 4.994-9.253 9.26-20.348 16.81-28.827 27.072-1.166 1.412-5.205 6.267-6.684 6.633-1.084-1.313-.87-2.402-1.136-4.385.278-1.465-.067-.854 1.161-1.839l.478 1.386c1.095-.189 8.321-8.877 10.124-10.822 8.643-9.322 17.897-16.223 28.497-23.039z"/>
  <path fill="#2b4023" d="M370.006 156.253c-.014-2.916-.646-6.065-.83-9.058-.532-8.61.653-16.907 3.747-24.945 1.8 1.886 2.943 5.35 3.841 7.87 2.35 6.593 5.695 11.474 9.884 17.063-5.426 2.988-11.484 5.847-16.642 9.07z"/>
  <defs>
    <linearGradient id="d" x1="507.535" x2="515.283" y1="109.342" y2="109.052" gradientTransform="translate(-78.749 -12.256)" gradientUnits="userSpaceOnUse">
      <stop offset="0" stop-color="#A1CB87"/>
      <stop offset="1" stop-color="#E4E9C0"/>
    </linearGradient>
  </defs>
  <path fill="url(#d)" d="M431.84 55.642c3.58 3.157 4.79 24.53 5.212 30.17 1.105 14.777-.137 37.652-5.14 51.517-.946.03-1.82-.204-2.768-.379 6.183-17.875 5.562-43.773 4.058-62.63-.404-5.057-2.273-14.32-1.362-18.678z"/>
  <path fill="#be9537" d="M397.086 70.327c3.342-2.4 9.178-7.609 12.746-8.357-5.076 4.76-8.623 8.52-13.444 13.491-1.495-.414-1.446-.52-2.915-.14 1.617-1.58 3.14-2.803 3.613-4.994z"/>
  <path fill="#2b4023" d="M392.438 144.223c1.766-5.566 8.3-17.628 10.904-24.119 8.33-20.758 16.573-41.102 26.18-61.32-2.075 8.206-5.266 16.143-8.61 23.907-8.36 19.401-13.398 41.094-23.815 59.477z"/>
  <path fill="#e7d09b" d="M443.23 82.822c40.474-8.162 100.861 20.554 138.863 36.602l.42.282c-7.026 6.648-11.206 11.096-14.653 20.382l-.283 2.296c-7.2-.675-25.769-7.336-33.605-9.755-34.095-10.529-57.075-12.185-92.344-9.53.197-1.826.387-4.517.89-6.204 1.193-10.958 1.851-23.085.712-34.073z"/>
  <path fill="#7c5219" d="M441.628 123.1c.197-1.827.387-4.518.89-6.205l.55 1.065c48.37-5.196 79.494 4.321 124.792 22.128l-.283 2.296c-7.2-.675-25.769-7.336-33.605-9.755-34.095-10.529-57.075-12.185-92.344-9.53z"/>
  <path fill="#e7d09b" d="m438.262 53.05.917-.202c2.126 1.488 5.718.92 8.346.71 43.955-3.515 87.084 19.616 123.927 40.9 7.542 4.357 16.968 9.724 23.615 14.964a266.198 266.198 0 0 0-9.555 7.515c-.786.74-2.214 2.154-3 2.77l-.419-.283c-38.002-16.048-98.389-44.764-138.863-36.602-.049-1.66-.3-3.395-.496-5.058.272-5.68-2.295-19.546-4.472-24.714z"/>
  <path fill="#916618" d="m442.734 77.764.83.915c10.352-.027 18.992-1.644 29.861-.363 18.186 2.142 34.98 7.948 52.051 14.341 20.333 7.451 40.123 15.856 60.036 24.28-.786.74-2.214 2.154-3 2.77l-.419-.283c-38.002-16.048-98.389-44.764-138.863-36.602-.049-1.66-.3-3.395-.496-5.058z"/>
  <path fill="#e7d09b" d="M439.18 52.848c17.135-4.435 43.451-5.284 60.097-.06 22.35 7.016 44.78 17.58 66.251 27.175 11.602 5.185 33.685 13.3 43.303 20.448-4.389 2.884-9.335 6.3-13.764 9.011-6.647-5.24-16.073-10.607-23.615-14.964-36.843-21.284-79.972-44.415-123.927-40.9-2.628.21-6.22.778-8.346-.71z"/>
  <path fill="#a57a28" d="m431.711 50.412.565-.07c13.995-1.815 21.365-4.803 37.215-4.672 39.831.328 78.412 25.267 114.941 39.307 7.262 2.791 22.744 11.118 28.9 12.82-.87.508-3.753 2.285-4.5 2.614-9.619-7.149-31.702-15.263-43.304-20.448-21.47-9.595-43.9-20.16-66.25-27.174-16.647-5.225-42.963-4.376-60.099.06l-.917.201c-2.729-1.55-3.49-1.966-6.55-2.638z"/>
  <path fill="#e7d09b" d="M178.447 225.743c-1.41-21.673 4.705-50.454 15.923-68.785 14.827-24.227 41.855-39.297 70.43-37.799 32.994 1.73 65.554 29.077 80.01 57.583-3.646 3.447-11.649 10.917-14.259 14.893-.188 1.613-2.525 3.461-3.95 5.014-5.39 6.842-16.19 18.907-19.249 26.296-10.36-1.97-32.647-.915-43.714-.56l-1.29 1.852-3.68.967c-5.919.385-11.632 1.172-17.34 1.558-5.783 1.214-26.149 3.971-29.584 5.697-2.97-1.108-5.889-1.93-8.928-2.824-4.6-1.286-12.589-2.965-17.23-3.589-1.967-.526-5.01-.329-7.139-.303z"/>
  <path fill="#be9537" d="M231.843 191.457c1.097-6.312 15.201-19.506 20.343-23.244 17.062-12.407 30.9-8.908 47.571 1.847 12.05 7.774 18.165 15.422 26.843 26.59-5.389 6.841-16.19 18.906-19.248 26.295-10.36-1.97-32.647-.915-43.714-.56l-1.29 1.852-3.68.967c-5.919.385-11.632 1.172-17.34 1.558l-4.39-.352c-2.224.17-2.186.167-4.37-.299-13.52-8.96-13.582-20.24-7.056-33.639 1.601-.526 4.454-.72 6.331-1.015z"/>
  <path fill="#2b4023" d="M231.843 191.457c17.071-12.557 38.406 1.972 35.016 22.381-.503 3.024-1.888 5.801-3.22 8.546l-1.29 1.853-3.682.967c-5.918.385-11.63 1.172-17.339 1.558l-4.39-.352c-2.224.17-2.186.167-4.37-.299-13.52-8.96-13.582-20.24-7.056-33.639 1.601-.526 4.454-.72 6.331-1.015z"/>
  <path fill="#1d271b" d="M231.843 191.457c17.071-12.557 38.406 1.972 35.016 22.381-.503 3.024-1.888 5.801-3.22 8.546l-1.29 1.853-3.253-.917c3.855-5.847 6.491-9.843 4.984-17.256-2.619-12.88-16.878-17.399-28.337-14.51-7.08 1.782-13.269 12.245-11.017 19.128 1.707 5.216 7.758 11.642 12.565 14.306l-.353 1.422c-2.224.17-2.186.167-4.37-.299-13.52-8.96-13.582-20.24-7.056-33.639 1.601-.526 4.454-.72 6.331-1.015z"/>
  <path fill="#1d271b" d="m259.096 223.32 3.252.917-3.68.967c-5.919.385-11.632 1.172-17.34 1.558l-4.39-.352.353-1.422c3.573-1.332 17.528-1.772 21.805-1.668z"/>
  <path fill="#be9537" d="M202.816 229.635c-.066-3.767-1.278-8.249-1.565-12.089-2.885-38.689 21.056-86.607 66.205-79.246 15.441 2.518 37.978 17.914 46.314 30.427 5.39 5.005 13.253 16.731 16.781 22.908-.188 1.613-2.525 3.461-3.95 5.014-8.679-11.167-14.794-18.815-26.844-26.589-16.67-10.755-30.509-14.254-47.57-1.847-5.143 3.738-19.247 16.932-20.344 23.244-1.877.294-4.73.49-6.33 1.015-6.527 13.398-6.466 24.68 7.054 33.64 2.185.465 2.147.467 4.371.298l4.39.352c-5.783 1.214-26.149 3.971-29.584 5.697-2.97-1.108-5.889-1.93-8.928-2.824z"/>
  <path fill="#7c5219" d="M202.816 229.635c-.066-3.767-1.278-8.249-1.565-12.089-2.885-38.689 21.056-86.607 66.205-79.246 15.441 2.518 37.978 17.914 46.314 30.427 5.39 5.005 13.253 16.731 16.781 22.908-.188 1.613-2.525 3.461-3.95 5.014-8.679-11.167-14.794-18.815-26.844-26.589-16.67-10.755-30.509-14.254-47.57-1.847-5.143 3.738-19.247 16.932-20.344 23.244-1.877.294-4.73.49-6.33 1.015 12.668-30.675 48.464-50.784 76.448-28.098 2.041 1.655 7.603 6.147 9.642 7.188-1.092-2.05-3.794-4.363-5.483-6.019-18.209-17.854-42.756-31.556-67.63-17.939-15.274 8.363-24.27 24.723-29.536 40.95-4.264 13.991-3.212 27.59-1.612 41.842 8.93-1.857 16.123-3.306 25.225-4.285 2.185.466 2.147.468 4.371.3l4.39.351c-5.783 1.214-26.149 3.971-29.584 5.697-2.97-1.108-5.889-1.93-8.928-2.824z"/>
  <path fill="#e7d09b" d="M141.341 208.693c5.132-48.48 39.686-89.886 86.222-103.579 6.148-1.809 13.03-3.784 19.466-3.904 3.505 2.39 16.792 1.678 21.89 2.504 4.446.721 9.011 1.25 13.562 2.237 10.941 2.373 19.02 4.847 28.893 10.108 14.473 7.711 23.228 15.336 34.262 27.072 3.824 4.068 13.851 19.752 15.22 20.551-4.645 3.596-8.517 6.664-12.935 10.558l-3.11 2.502c-14.457-28.506-47.017-55.854-80.012-57.583-28.574-1.498-55.602 13.572-70.429 37.8-11.218 18.33-17.333 47.111-15.923 68.784 2.13-.026 5.172-.223 7.14.303-2.902.084-6.094-.283-8.334 1.298l-1.518 1.96c.153 2.91.223 4.464.814 7.38l.456 3.975c-5.425.784-12.44 3.295-17.714 5.156-.275-1.148-.6-2.296-.908-3.437l-.522-.419c-4.822-12.32-8.828-22.245-16.52-33.266z"/>
  <path fill="#a57a28" d="M175.735 229.304c-1.562-11.872.114-27.109 2.127-38.97 7.982-47.034 49.441-83.713 98.511-73.163 32.031 6.887 54.18 30.073 71.548 57.07l-3.11 2.501c-14.457-28.506-47.017-55.854-80.012-57.583-28.574-1.498-55.602 13.572-70.429 37.8-11.218 18.33-17.333 47.111-15.923 68.784 2.13-.026 5.172-.223 7.14.303-2.902.084-6.094-.283-8.334 1.298zm.814 7.38.456 3.975c-5.425.784-12.44 3.295-17.714 5.156-.275-1.148-.6-2.296-.908-3.437 5.311-2.644 12.437-4.398 18.166-5.695z"/>
  <defs>
    <linearGradient id="e" x1="563.418" x2="572.344" y1="22.67" y2="146.238" gradientTransform="translate(-78.749 -12.256)" gradientUnits="userSpaceOnUse">
      <stop offset="0" stop-color="#C48E4C"/>
      <stop offset="1" stop-color="#CAA14A"/>
    </linearGradient>
  </defs>
  <path fill="url(#e)" d="M353.054 75.186c29.083-34.385 64.404-59.372 110.376-63.713 50.407-4.76 95.463 19.246 137.891 43.267 10.802 6.115 42.646 24.4 50.69 33.101-.59 5.692-5.207 27.724-7.11 33.828 1.105.983 1.18 1.125 2.476 1.784-2.067 1.527-4.022 3-6.185 4.397-.5-5.352-.56-8.657-.409-14.048.222-5.88-.157-7.69-.968-13.398.884-3.065.847-4.326.965-7.436-4.115-4.287-11.926-8.553-17.186-11.897 2.156-1.108 6.91 2.642 10.496 2.446-9.527-6.37-19.834-11.503-29.71-17.275-26.234-15.33-52.142-27.61-80.905-37.42-25.543-8.712-46.869-12.19-73.667-6.822-36.374 7.285-64.108 23.885-83.974 55.742-10.658 16.54-16.397 35.443-19.873 54.398-2.329-2.062-13.055-10.33-13.97-11.704-1.656-.367-1.71-.773-3.099-2.033 1.396-5.472 5.011-15.88 7.74-20.613.996-.628 11.047-18.142 16.422-22.604z"/>
  <path fill="#7c5219" d="M336.631 97.79c.997-.628 11.048-18.142 16.423-22.604-7.22 16.398-15.798 25.652-21.063 45.25-1.656-.367-1.71-.773-3.099-2.033 1.396-5.472 5.011-15.88 7.74-20.613z"/>
  <defs>
    <linearGradient id="f" x1="712.819" x2="717.534" y1="107.31" y2="99.229" gradientTransform="translate(-78.749 -12.256)" gradientUnits="userSpaceOnUse">
      <stop offset="0" stop-color="#784E04"/>
      <stop offset="1" stop-color="#966212"/>
    </linearGradient>
  </defs>
  <path fill="url(#f)" d="M623.594 81.071c2.156-1.108 6.91 2.642 10.496 2.446 3.84 2.29 6.197 4.298 8.717 8.078-.925 8.352-1.678 13.973-1.695 22.324l-.329-.117c.222-5.88-.157-7.69-.968-13.398.884-3.065.847-4.326.965-7.436-4.115-4.287-11.926-8.553-17.186-11.897z"/>
  <path fill="#362706" d="m640.783 113.802.33.117c.016 2.488-.508 9.003.621 10.29 2.314-.75 1.87-1.664 3.166-2.54 1.106.983 1.181 1.125 2.477 1.784-2.067 1.527-4.022 3-6.185 4.397-.5-5.352-.56-8.657-.409-14.048z"/>
  <defs>
    <linearGradient id="g" x1="359.609" x2="376.57" y1="113.882" y2="80.273" gradientTransform="translate(-78.749 -12.256)" gradientUnits="userSpaceOnUse">
      <stop offset="0" stop-color="#396124"/>
      <stop offset="1" stop-color="#5A8741"/>
    </linearGradient>
  </defs>
  <path fill="url(#g)" d="M249.025 53.617c-.07-1.726-.306-2.527.675-3.92 3.977-2.574 29.065 5.517 34.02 7.786 17.244 5.22 44 21.768 51.756 38.53l1.155 1.777c-2.728 4.732-6.343 15.141-7.739 20.613-2.064-1.213-6.585-4.774-8.697-6.35l-4.428-2.926c-1.374-.323-9.137-3.864-11.29-4.717-11.438-4.529-27.523-10.413-39.828-10.727-5.324-10.017-14.256-29.11-15.624-40.066z"/>
  <path fill="#96c685" d="M249.025 53.617c-.07-1.726-.306-2.527.675-3.92 3.977-2.574 29.065 5.517 34.02 7.786 17.244 5.22 44 21.768 51.756 38.53-2.94-.026-11.264-9.85-14.28-12.538-10.493-9.537-23.2-15.692-36.162-21.106-3.64-1.522-9.156-2.736-12.368-4.587l-1.392.138c-5.84-2.62-15.803-3.64-22.249-4.303z"/>
  <path fill="#afd296" d="M249.025 53.617c-.07-1.726-.306-2.527.675-3.92 3.977-2.574 29.065 5.517 34.02 7.786-7.075.664-8.28-5.844-17.043-2.012l.054.304c2.388.525 3.765.801 6.092 1.653l-.157.354-1.392.138c-5.84-2.62-15.803-3.64-22.249-4.303z"/>
  <path fill="#2b4023" d="M315.767 109.127c-10.982-10.4-18.64-26.57-31.203-36.377-2.782-2.17-8.073-6.295-10.03-8.87l.27-.315 2.101.698c18.957 11.564 31.952 31.97 46.575 47.874-1.4.19-1.887.064-3.285-.085z"/>
  <defs>
    <linearGradient id="h" x1="281.473" x2="250.93" y1="165.039" y2="136.626" gradientTransform="translate(-78.749 -12.256)" gradientUnits="userSpaceOnUse">
      <stop offset="0" stop-color="#A16833"/>
      <stop offset="1" stop-color="#C79753"/>
    </linearGradient>
  </defs>
  <path fill="url(#h)" d="M133.45 196.77c-2.796-4.859 1.251-13.02 2.93-17.982 18.266-54.026 68.353-88.318 125.317-85.382l.101.718c-2.654.428-3.082-.798-4.806.025l.16.97c1.464.872 1.374.795 3.092.92-8.102.706-19.542 1.673-27.235 3.69-41.596 10.91-79.915 43.773-91.652 85.858-1.025 3.676-2.604 13.72-4.213 16.647-1.195-1.926-2.22-3.74-3.694-5.464z"/>
  <path fill="#e7d09b" d="M247.03 101.21c47.701-5.98 92.241 19.936 115.803 60.817l-1.977 1.655c-1.369-.799-11.396-16.483-15.22-20.55-11.034-11.737-19.789-19.362-34.262-27.073-9.873-5.26-17.952-7.735-28.893-10.108-4.55-.987-9.116-1.516-13.562-2.237-5.098-.826-18.385-.115-21.89-2.504z"/>
  <path fill="#a57a28" d="M441.628 123.1c35.27-2.656 58.25-1 92.344 9.53 7.836 2.418 26.404 9.08 33.605 9.754-3.334 8.182-4.245 19.67-4.107 28.446.036 2.27.434 7.97.041 9.827l-1.207 2.82 2.873 3.181c4.613 4.896 11.206 12.49 14.974 18.145 8.472 13.073 17.9 30.65 19.851 46.343-3.956.641-10.08 1.45-13.782 2.47-1.185.25-2.972.68-4.116.831-9.206 1.631-25.91 4.024-34.438 6.17-1.575.267-3.827.731-5.345.72-7.298 1.027-19.935 2.492-26.7 4.203l-1.512.337-1.897.003c-7.47 1.73-19.53 2.976-27.587 4.158l-2.788.52-2.239.123c-25.349 3.525-50.026 6.86-75.45 9.815-2.172.578-4.615.78-6.868.816-10.156 1.233-20.46 2.113-30.648 3.168l-1.496.438c-2.309-.007-4.6.218-6.898.436-13.5 1.283-27.023 2.43-40.49 4.045-1.405.232-2.264.391-3.712.434l-30.104 2.636c-2.837.386-5.585.577-8.434.802-.065-1.573.203-3.926.336-5.549a218.087 218.087 0 0 1 2.477-5.68c1.348-3.32 1.124-3.343-1.026-6.189 4.641-3.015 3.921.283 5.951-6.717 3.501-7.494 5.303-13.118 9.576-20.779.327-.354 1.687-3.233 1.993-3.854l4.268-7.799c2.31-3.814 4.484-7.563 6.693-11.436l1.586-2.323c3.058-7.389 13.86-19.454 19.248-26.296 1.426-1.553 3.763-3.4 3.951-5.014 2.61-3.976 10.613-11.446 14.26-14.893l3.11-2.502c4.418-3.894 8.29-6.962 12.935-10.558l1.977-1.655c1.51-.88 1.41-.85 2.497-2.242 1.155-1.098 3.327-2.56 4.676-3.532 5.158-3.223 11.216-6.082 16.642-9.07 1.824-.828 4.234-1.793 5.79-2.96l4.66-2.055c8.122-1.778 23.268-6.844 31.375-4.986l.671-.232c.948.175 1.822.41 2.768.38 1.701.63 5.132.484 7.092.508.884-5.242 1.96-9.234 2.624-14.739z"/>
  <path fill="#7c5219" d="M397.28 281.312c18.037-30.284 49.215-62.248 79.972-77.976 43.09-22.035 83.528-13.493 101.608 33.274 2.006 5.19 4.841 11.952 7.36 17.005-1.185.25-2.972.68-4.116.832-9.206 1.631-25.91 4.024-34.438 6.17-1.575.267-3.827.731-5.345.72-7.298 1.027-19.935 2.492-26.7 4.203l-1.512.337-1.897.003c-7.47 1.73-19.53 2.976-27.587 4.158l-2.788.52-2.239.123c-25.349 3.525-50.026 6.86-75.45 9.815-2.172.578-4.615.78-6.868.816z"/>
  <path fill="#be9537" d="M458.391 220.991c33.59-22.54 83.541-39.213 109.165 2.414 5.892 9.572 11.495 20.207 14.548 31.042-9.206 1.631-25.91 4.024-34.438 6.17-1.575.267-3.827.731-5.345.72-7.298 1.027-19.935 2.492-26.7 4.203-1.222-1.27-2.575-6.533-3.622-8.78-5.915-12.702-14.642-23.43-27.173-29.835-8.235-3.937-17.365-5.626-26.435-5.934z"/>
  <path fill="#e7d09b" d="M484.826 226.925c2.922-1.228 11.835-.955 15.078-.848 15.465 1.543 35.896 21.954 42.417 35.26-7.298 1.027-19.935 2.492-26.7 4.203-1.222-1.27-2.575-6.533-3.622-8.78-5.915-12.702-14.642-23.43-27.173-29.835z"/>
  <path fill="#7c5219" d="m499.904 226.077.342-.713c14.942-2.15 35.021 14.926 42.316 26.613 1.034 1.657 4.11 7.626 5.104 8.64-1.575.267-3.827.731-5.345.72-6.52-13.306-26.952-33.717-42.417-35.26z"/>
  <path fill="#be9537" d="M433.041 242.695c5.128-5.264 10.637-11.793 17.133-15.273 1.688-.904 6.052-1.059 8.104-1.115 26.968-.729 42.497 17.422 53.934 39.573-7.47 1.73-19.53 2.976-27.587 4.158l-2.788.52-2.239.123-.575-1.928c1.29-2.075.192-2.886 2.455-4.117-10.27-17.43-29.433-22.04-48.437-21.94z"/>
  <path fill="#7c5219" d="M481.478 264.636c.851 1.735 1.81 4.27 3.147 5.402l-2.788.52-2.239.123-.575-1.928c1.29-2.075.192-2.886 2.455-4.117z"/>
  <path fill="#be9537" d="M426.343 249.993c16.955-4.605 44.155 2.182 52.68 18.76l.575 1.928c-25.349 3.525-50.026 6.86-75.45 9.815-.026-5.422 17.655-26.165 22.195-30.503z"/>
  <path fill="#e7d09b" d="M411.478 209.04c17.828-20.603 52.25-41.304 78.87-46.623 23.42-4.68 41.121-1.758 60.974 11.402 1.563.264 1.68.44 3.207.175 3.702 1.445 6.027 3.987 8.982 6.663l-1.207 2.82 2.873 3.181c4.613 4.896 11.206 12.49 14.974 18.145 8.472 13.073 17.9 30.65 19.851 46.343-3.956.641-10.08 1.45-13.782 2.47-2.519-5.054-5.354-11.817-7.36-17.006-18.08-46.767-58.518-55.309-101.608-33.274-30.757 15.728-61.935 47.692-79.972 77.976-10.156 1.233-20.46 2.113-30.648 3.168-.717-1.675.206-3.326.84-5.113 4.523-17.98 30.051-58.375 44.006-70.327z"/>
  <path fill="#e7d09b" d="M411.478 209.04c17.828-20.603 52.25-41.304 78.87-46.623 23.42-4.68 41.121-1.758 60.974 11.402 1.563.264 1.68.44 3.207.175 3.702 1.445 6.027 3.987 8.982 6.663l-1.207 2.82 2.873 3.181-1.139.338c-49.345-28.024-91.876-11.513-133.107 22.025-.989.805-8.606 7.22-9.109 6.993 15.222-14.259 38.582-29.82 57.91-37.592 5.672-2.28 17.42-4.426 20.812-5.963-.098-1.38-.227-1.517-.715-2.839l.18-.505c3.31-9.633-5.995-6.973-11.352-5.617-14.694 3.717-28.843 9.982-41.774 17.85-7.083 4.341-13.864 9.426-20.363 14.544-2.8 2.206-13.197 12.915-14.605 13.38z"/>
  <path fill="#362706" d="M551.322 173.82c1.563.263 1.68.438 3.207.174 3.702 1.445 6.027 3.987 8.982 6.663l-1.207 2.82c-3.809-3.625-6.957-6.323-10.982-9.658z"/>
  <path fill="#e7d09b" d="M397.097 142.168c8.123-1.778 23.27-6.844 31.376-4.986l-.986 1.685c7 .56 12.167 1.257 18.98 2.955-6.793 2.125-12.568 4.048-19.214 6.573-8.274 4.615-17.049 8.596-24.846 13.898-41.132 27.97-73.765 76.041-87.303 123.693l-1.068 3.847-30.104 2.636c-2.837.386-5.585.577-8.434.802-.065-1.573.203-3.926.336-5.549a218.087 218.087 0 0 1 2.477-5.68c1.348-3.32 1.124-3.343-1.026-6.189 4.641-3.015 3.921.283 5.951-6.717 3.501-7.494 5.303-13.118 9.576-20.779.327-.354 1.687-3.233 1.993-3.854l4.268-7.799c2.31-3.814 4.484-7.563 6.693-11.436l1.586-2.323c3.058-7.389 13.86-19.454 19.248-26.296 1.426-1.553 3.763-3.4 3.951-5.014 2.61-3.976 10.613-11.446 14.26-14.893l3.11-2.502c4.418-3.894 8.29-6.962 12.935-10.558l1.977-1.655c1.51-.88 1.41-.85 2.497-2.242 1.155-1.098 3.327-2.56 4.676-3.532 5.158-3.223 11.216-6.082 16.642-9.07 1.824-.828 4.234-1.793 5.79-2.96z"/>
  <path fill="#e7d09b" d="M287.03 274.564c3.313-1.923 9.816-11.63 12.39-15.22 23.861-33.312 48.923-67.904 82.74-91.854 9.323-6.603 33.955-20.074 45.093-19.095-8.274 4.615-17.049 8.596-24.846 13.898-41.132 27.97-73.765 76.041-87.303 123.693l-1.068 3.847-30.104 2.636-1.898-.25-.498-.996c-.065-4.717 3.413-12.262 5.494-16.659z"/>
  <path fill="#916618" d="M397.097 142.168c8.123-1.778 23.27-6.844 31.376-4.986l-.986 1.685c-61.277 2.252-122.164 81.997-140.457 135.697-2.08 4.397-5.559 11.942-5.494 16.66l.498.994 1.898.251c-2.837.386-5.585.577-8.434.802-.065-1.573.203-3.926.336-5.549a218.087 218.087 0 0 1 2.477-5.68c1.348-3.32 1.124-3.343-1.026-6.189 4.641-3.015 3.921.283 5.951-6.717 3.501-7.494 5.303-13.118 9.576-20.779.327-.354 1.687-3.233 1.993-3.854l4.268-7.799c2.31-3.814 4.484-7.563 6.693-11.436l1.586-2.323c3.058-7.389 13.86-19.454 19.248-26.296 1.426-1.553 3.763-3.4 3.951-5.014 2.61-3.976 10.613-11.446 14.26-14.893l3.11-2.502c4.418-3.894 8.29-6.962 12.935-10.558l1.977-1.655c1.51-.88 1.41-.85 2.497-2.242 1.155-1.098 3.327-2.56 4.676-3.532 5.158-3.223 11.216-6.082 16.642-9.07 1.824-.828 4.234-1.793 5.79-2.96z"/>
  <path fill="#e7d09b" d="M346.222 238.98c4.611-6.924 7.797-5.846 13.69-10.293 32.121-24.24 58.306-57.47 98.862-68.123 14.224-3.736 26.931-6.73 41.705-4.269 3.79.632 9.3.598 13.185.51-3.459.56-6.584.311-9.992.614-62.223 5.54-122.454 62.29-137.136 121.736l.936.212c-.634 1.787-1.557 3.438-.84 5.113l-1.496.438c-2.309-.007-4.6.218-6.898.436-13.5 1.283-27.023 2.43-40.49 4.045 3.784-17.543 16.827-44.795 27.042-59.636.562 2.5 1.04 6.571 1.432 9.217z"/>
  <path fill="#be9537" d="m366.536 279.155.936.212c-.634 1.787-1.557 3.438-.84 5.113l-1.496.438c.245-2.367.687-3.505 1.4-5.763z"/>
  <path fill="#e7d09b" d="M344.79 229.763c11.53-16.764 19.348-30.088 35.382-44.348 24.83-22.082 59.398-45.753 93.94-44.458 12.254.46 31.283 6.642 39.552 15.847-3.885.09-9.396.123-13.185-.509-14.774-2.46-27.48.533-41.705 4.27-40.556 10.651-66.74 43.881-98.862 68.122-5.893 4.447-9.079 3.37-13.69 10.293-.392-2.646-.87-6.717-1.432-9.217zM613.332 97.797c9.003-4.653 24.225-14.16 26.483 2.607.811 5.708 1.19 7.518.968 13.398-.152 5.391-.09 8.696.41 14.048 2.162-1.397 4.117-2.87 6.184-4.397 8.784-4.91 23.508-5.655 32.684-1.354 17.491 5.812 30.262 25.053 28.167 43.39l-.088.827-.06.497c-.944 6.746-4.568 13.045-7.623 19.15-1.482-.403-3.089-.174-4.653-.086.365.783 1.033 2.091 1.265 2.864 1.121 2.9 2.488 6.21 3.368 9.147l1.096 3.716c2.694 7.92 4.05 14.88 4.02 23.306-.926 1.96-.265 1.172-2.105 2.407-7.262 1.667-15.553 4.263-22.866 6.22l-2.453.731-.62-.073c-4.635 1.145-10.539 2.436-14.986 3.9l-3.244.635c-4.767 1.104-11.577 2.47-16.095 3.908-1.602.276-4.254.825-5.78.98l-.454.161c-9.389 1.827-21.067 3.967-30.353 6.27-2.37.472-4.17.838-6.595 1.097-1.952-15.694-11.379-33.27-19.85-46.343-3.769-5.655-10.362-13.249-14.975-18.145l-2.873-3.182 1.207-2.819c.393-1.858-.005-7.558-.04-9.827-.139-8.777.772-20.264 4.106-28.446l.283-2.296c3.447-9.286 7.627-13.734 14.652-20.382.786-.615 2.214-2.03 3-2.769a266.198 266.198 0 0 1 9.555-7.515c4.43-2.71 9.375-6.127 13.764-9.01.748-.33 3.63-2.107 4.501-2.615z"/>
  <defs>
    <linearGradient id="i" x1="665.575" x2="703.803" y1="124.182" y2="199.202" gradientTransform="translate(-78.749 -12.256)" gradientUnits="userSpaceOnUse">
      <stop offset="0" stop-color="#1B2910"/>
      <stop offset="1" stop-color="#121713"/>
    </linearGradient>
  </defs>
  <path fill="url(#i)" d="M613.332 97.797c9.003-4.653 24.225-14.16 26.483 2.607.811 5.708 1.19 7.518.968 13.398-.152 5.391-.09 8.696.41 14.048-.04 3.425-.186 7.45-.075 10.821-.549 8.181-1.01 11.86-3.096 19.987-3.09 8.5-4.358 12.425-8.804 20.603-1.065 1.243-2.895 3.223-3.686 4.541-1.953 2.237-3.534 4.061-5.675 6.127l-1.745 1.298c-13.07 8.417-18.936 9.151-33.66 12.632l-4.3.944c-3.769-5.655-10.362-13.249-14.975-18.145l-2.873-3.182 1.207-2.819c.393-1.858-.005-7.558-.04-9.827-.139-8.777.772-20.264 4.106-28.446l.283-2.296c3.447-9.286 7.627-13.734 14.652-20.382.786-.615 2.214-2.03 3-2.769a266.198 266.198 0 0 1 9.555-7.515c4.43-2.71 9.375-6.127 13.764-9.01.748-.33 3.63-2.107 4.501-2.615z"/>
  <defs>
    <linearGradient id="j" x1="701.974" x2="670.668" y1="194.986" y2="130.983" gradientTransform="translate(-78.749 -12.256)" gradientUnits="userSpaceOnUse">
      <stop offset="0" stop-color="#2E531E"/>
      <stop offset="1" stop-color="#558F3D"/>
    </linearGradient>
  </defs>
  <path fill="url(#j)" d="M631.695 94.052c1.717-.159.837-.212 2.717.796 5.474 10.207 2.831 51.041-1.248 62.521-2.339 6.584-5.526 15.011-10.19 20.653-9.388 15.878-26.029 17.593-41.954 21.058-.709-1.132-1.828-3.12-2.715-3.959l-1.97-1.909c-5.197-5.51-8.218-11.85-8.875-19.367-1.27-14.538 1.386-34.642 10.764-46.307 10.492-13.05 37.23-31.588 53.471-33.486z"/>
  <defs>
    <linearGradient id="k" x1="692.034" x2="668.389" y1="190.189" y2="119.99" gradientTransform="translate(-78.749 -12.256)" gradientUnits="userSpaceOnUse">
      <stop offset="0" stop-color="#386728"/>
      <stop offset="1" stop-color="#4E8435"/>
    </linearGradient>
  </defs>
  <path fill="url(#k)" d="M631.695 94.052c.016 1.197-8.03 11.127-9.416 13.061-7.342 10.25-14.27 20.726-21.183 31.266-6.382 9.732-12.813 19.256-17.74 29.845-3.838 8.242-6.028 15.973-7.02 24.988-5.198-5.51-8.219-11.85-8.876-19.367-1.27-14.538 1.386-34.642 10.764-46.307 10.492-13.05 37.23-31.588 53.471-33.486z"/>
  <path fill="#afd296" d="M634.412 94.848c5.474 10.207 2.831 51.041-1.248 62.521-2.339 6.584-5.526 15.011-10.19 20.653.053-2.335 5.087-10.566 6.004-13.67 5.268-17.834 5.88-36.357 4.558-54.79-.319-4.455-.679-9.415.474-13.729z"/>
  <path fill="#1d271b" d="M631.695 94.052c1.717-.159.837-.212 2.717.796l-.402.985c-4.859 4.892-14.305 18.012-18.17 23.915-10.594 16.178-41.03 56.226-37.535 75.373l-1.97-1.909c.993-9.015 3.183-16.746 7.02-24.988 4.928-10.589 11.36-20.113 17.741-29.845 6.913-10.54 13.841-21.017 21.183-31.266 1.386-1.934 9.432-11.864 9.416-13.06z"/>
  <path fill="#7c5219" d="M680.061 122.1c17.491 5.811 30.262 25.052 28.167 43.388l-.088.828-.06.497c-.944 6.746-4.568 13.045-7.623 19.15-1.482-.403-3.089-.174-4.653-.086.365.783 1.033 2.091 1.265 2.864 1.121 2.9 2.488 6.21 3.368 9.147l1.096 3.716c2.694 7.92 4.05 14.88 4.02 23.306-.926 1.96-.265 1.172-2.105 2.407-7.262 1.667-15.553 4.263-22.866 6.22l-2.453.731-.62-.073c-4.635 1.145-10.539 2.436-14.986 3.9l-3.244.635c-9.528-16.795-12.73-34.514-7.19-53.37 3.583-12.197 16.258-30.14 31.08-25.058 7.897 2.708 12.033 10.377 15.447 17.388 2.65-3.62 4.936-7.26 4.64-11.903-.72-11.258-5.502-22.418-13.104-30.464l.688-.695c.85-5.829-7.634-9.666-10.779-12.529z"/>
  <path fill="#be9537" d="M679.97 165.686c4.483-1.124 7.63 6.7 10.204 8.758l.085-2.434-.128 1.018.322-.975c.888 3.327 2.398 12.052 5.351 13.824.365.783 1.033 2.091 1.265 2.864 1.121 2.9 2.488 6.21 3.368 9.147l1.096 3.716c2.694 7.92 4.05 14.88 4.02 23.306-.926 1.96-.265 1.172-2.105 2.407-7.262 1.667-15.553 4.263-22.866 6.22-2.025-1.347-3.268-6.815-4.25-9.217-7.48-18.276-8.584-33.715-7.833-53.1 3.652-3.967 6.366-4.824 11.47-5.534z"/>
  <defs>
    <linearGradient id="l" x1="762.396" x2="781.162" y1="208.714" y2="207.201" gradientTransform="translate(-78.749 -12.256)" gradientUnits="userSpaceOnUse">
      <stop offset="0" stop-color="#573904"/>
      <stop offset="1" stop-color="#855109"/>
    </linearGradient>
  </defs>
  <path fill="url(#l)" d="M679.97 165.686c4.483-1.124 7.63 6.7 10.204 8.758l.085-2.434-.128 1.018.322-.975c.888 3.327 2.398 12.052 5.351 13.824.365.783 1.033 2.091 1.265 2.864 1.121 2.9 2.488 6.21 3.368 9.147l1.096 3.716c2.694 7.92 4.05 14.88 4.02 23.306-.926 1.96-.265 1.172-2.105 2.407-1.109-4.003-1.647-11.03-2.669-14.172-4.19-12.888-10.2-30.384-17.542-41.537-.582-1.774-2.243-4.226-3.268-5.922z"/>
  <path fill="#916618" d="M668.5 171.22c3.651-3.967 6.365-4.824 11.47-5.534 1.024 1.696 2.685 4.148 3.267 5.922-5.609-2.115-8.946-1.356-14.738-.388z"/>
  <path fill="#be9537" d="M661.645 177.003c.313 25.331 5.518 35.467 15.863 57.192-4.634 1.145-10.538 2.436-14.985 3.9-10.654-20.953-10.316-39.595-.878-61.092z"/>
  <path fill="#a57a28" d="M680.061 122.1c17.491 5.811 30.262 25.052 28.167 43.388l-.088.828-.06.497c-2.13-.748-2.646-6.529-2.894-8.783-.587-5.347-8.937-23.014-14.346-23.402.85-5.829-7.634-9.666-10.779-12.529z"/>
  <path fill="#be9537" d="M618.112 191.227c2.907 13.62 5.874 23.82 11.401 36.723 1.301 3.037 7.433 13.743 7.891 15.668l-.454.161c-9.389 1.827-21.067 3.967-30.353 6.27-2.37.472-4.17.838-6.595 1.097-1.952-15.694-11.379-33.27-19.85-46.343l4.3-.944c14.724-3.48 20.59-4.215 33.66-12.632z"/>
  <path fill="#7c5219" d="m580.151 204.803 4.301-.944c7.296 8.323 11.012 15.064 15.121 25.401 1.481 3.727 5.161 19.508 7.024 20.79-2.37.471-4.17.837-6.595 1.096-1.952-15.694-11.379-33.27-19.85-46.343z"/>
  <path fill="#f2f2f1" d="M647.377 123.453c8.784-4.91 23.508-5.655 32.684-1.354 3.145 2.863 11.628 6.7 10.78 12.53l-.689.694-2.523-2.672c-15.295-1.356-23.386.777-35.986 10.347-5.67 4.307-11.162 13.928-13.62 15.66 2.084-8.127 2.546-11.806 3.095-19.987-.11-3.372.035-7.396.074-10.82 2.163-1.398 4.118-2.87 6.185-4.398z"/>
  <path fill="#be9537" d="M647.377 123.453c8.784-4.91 23.508-5.655 32.684-1.354 3.145 2.863 11.628 6.7 10.78 12.53l-.689.694-2.523-2.672c-12.079-10.197-31.043-14.058-41.61-.228-1.603 2.097-3.288 4.154-4.9 6.248-.112-3.372.034-7.396.073-10.82 2.163-1.398 4.118-2.87 6.185-4.398z"/>
  <path fill="#7c5219" d="m618.112 191.227 1.745-1.298c1.656 4.111 3.656 8.744 5.167 12.855.476 1.902 1.59 2.78 3.27 3.701 1.575 7.2 10.504 30.245 14.89 36.153-1.602.276-4.254.825-5.78.98-.458-1.925-6.59-12.63-7.89-15.668-5.528-12.903-8.495-23.104-11.402-36.723z"/>
  <path fill="#916618" d="M629.218 179.261c-.607 9.445-1.224 17.724-.925 27.224-1.68-.922-2.793-1.799-3.269-3.7-1.51-4.112-3.51-8.745-5.167-12.856 2.141-2.066 3.722-3.89 5.675-6.127.791-1.318 2.621-3.298 3.686-4.54z"/>
  <path fill="#e7d09b" d="M625.532 183.802c.325.843-.303 16.73-.508 18.982-1.51-4.11-3.51-8.744-5.167-12.855 2.141-2.066 3.722-3.89 5.675-6.127z"/>
  <defs>
    <linearGradient id="m" x1="275.676" x2="315.514" y1="307.406" y2="263.191" gradientTransform="translate(-78.749 -12.256)" gradientUnits="userSpaceOnUse">
      <stop offset="0" stop-color="#305A26"/>
      <stop offset="1" stop-color="#4D8A37"/>
    </linearGradient>
  </defs>
  <path fill="url(#m)" d="M263.638 222.384c11.067-.354 33.354-1.409 43.714.561l-1.586 2.323c-2.209 3.873-4.383 7.622-6.693 11.436l-4.268 7.8c-.306.62-1.666 3.5-1.993 3.853-4.273 7.661-6.075 13.285-9.576 20.78-2.03 7-1.31 3.701-5.95 6.716 2.15 2.846 2.373 2.868 1.025 6.19a218.087 218.087 0 0 0-2.477 5.68c-.133 1.622-.4 3.975-.336 5.548l-26.869 2.174c-2.14.516-3.067.352-5.31.254l-28.13 2.027c-3.109.236-13.646 1.143-16.172.82-1.272-.03-2.079-.244-3.324-.475l-1.342-2.773c-1.204-2.083-2.284-4.206-3.395-6.339-3.002-6.838-6.79-14.995-8.586-22.155l-.854-3.129c-1.34-4.483-2.139-9.15-2.955-13.752l-1.556-9.264-.456-3.976c-.59-2.915-.66-4.469-.814-7.379l1.518-1.96c2.24-1.58 5.432-1.214 8.333-1.298 4.641.624 12.63 2.303 17.23 3.59 3.04.892 5.957 1.715 8.928 2.823 3.435-1.726 23.801-4.483 29.584-5.697 5.708-.386 11.421-1.173 17.34-1.558l3.68-.967z"/>
  <path fill="#e7d09b" d="M263.638 222.384c11.067-.354 33.354-1.409 43.714.561l-1.586 2.323c-2.209 3.873-4.383 7.622-6.693 11.436l-4.268 7.8c-.306.62-1.666 3.5-1.993 3.853-4.273 7.661-6.075 13.285-9.576 20.78-2.03 7-1.31 3.701-5.95 6.716-1.358-1.119-4.1-4.405-5.382-5.86-7.617-7.399-15.777-13.777-24.648-19.585l-4.858-3.144c-4.253-2.493-8.784-4.879-13.125-7.244-6.026-2.883-11.288-5.222-17.529-7.56 3.435-1.727 23.801-4.484 29.584-5.698 5.708-.386 11.421-1.173 17.34-1.558l3.68-.967z"/>
  <path fill="#e7d09b" d="M263.638 222.384c11.067-.354 33.354-1.409 43.714.561l-1.586 2.323c-2.209 3.873-4.383 7.622-6.693 11.436-19.454-.12-38.746.492-58.117 2.234-3.297.297-8.99.031-11.683 1.082-6.026-2.883-11.288-5.222-17.529-7.56 3.435-1.727 23.801-4.484 29.584-5.698 5.708-.386 11.421-1.173 17.34-1.558l3.68-.967z"/>
  <path fill="#7c5219" d="M263.638 222.384c11.067-.354 33.354-1.409 43.714.561l-1.586 2.323c-16.89-.545-30.424-.11-47.099-.064l3.681-.967z"/>
  <path fill="#e7d09b" d="M247.256 250.408c11.42-1.298 23.527-1.115 35.005-1.858 3.415-.22 7.134-.322 10.551-.193-4.273 7.661-6.075 13.285-9.576 20.78-2.03 7-1.31 3.701-5.95 6.716-1.358-1.119-4.1-4.405-5.382-5.86-7.617-7.399-15.777-13.777-24.648-19.585z"/>
  <path fill="#7c5219" d="M271.904 269.992c4.4-.692 6.836-.768 11.332-.856-2.03 7-1.31 3.702-5.95 6.717-1.358-1.119-4.1-4.405-5.382-5.86z"/>
  <path fill="#a57a28" d="M242.398 247.264c4.167-.657 11.485-.867 15.912-1.217 12.203-.965 24.248-1.544 36.495-1.544-.306.621-1.666 3.5-1.993 3.854-3.417-.129-7.136-.028-10.55.193-11.479.743-23.587.56-35.006 1.858z"/>
  <path fill="#96c685" d="M185.586 226.046c4.641.624 12.63 2.303 17.23 3.59 3.04.892 5.957 1.715 8.928 2.823 6.241 2.34 11.503 4.678 17.53 7.561 4.34 2.365 8.871 4.751 13.124 7.244l4.858 3.144c8.871 5.808 17.031 12.186 24.648 19.584 1.282 1.456 4.024 4.742 5.381 5.861 2.15 2.846 2.374 2.868 1.026 6.19a218.087 218.087 0 0 0-2.477 5.68c-23.199-29.509-60.173-49.496-96.176-58.55.901-.323 2.02-.14 3.058-.097-.13-.527 0-.182-.682-.868-1.906-.016-3.33.247-4.78-.864 2.24-1.58 5.431-1.214 8.332-1.298z"/>
  <path fill="#1d271b" d="M185.586 226.046c4.641.624 12.63 2.303 17.23 3.59 3.04.892 5.957 1.715 8.928 2.823 6.241 2.34 11.503 4.678 17.53 7.561 4.34 2.365 8.871 4.751 13.124 7.244l4.858 3.144c8.871 5.808 17.031 12.186 24.648 19.584 1.282 1.456 4.024 4.742 5.381 5.861 2.15 2.846 2.374 2.868 1.026 6.19-24.457-29.576-58.74-45.473-95.595-52.967-.13-.527 0-.182-.682-.868-1.906-.016-3.33.247-4.78-.864 2.24-1.58 5.431-1.214 8.332-1.298z"/>
  <path fill="#1d271b" d="M177.253 227.344c1.451 1.111 2.875.848 4.781.864.681.686.552.341.682.868-1.039-.044-2.157-.226-3.058.097-.467 11.656 5.9 38.01 10.358 49.268 2.365 5.973 6.37 13.861 9.001 20.104-1.272-.029-2.079-.243-3.324-.474l-1.342-2.773c-1.204-2.083-2.284-4.206-3.395-6.339-3.002-6.838-6.79-14.995-8.586-22.155l-.854-3.129c-1.34-4.483-2.139-9.15-2.955-13.752l-1.556-9.264-.456-3.976c-.59-2.915-.66-4.469-.814-7.379z"/>
  <path fill="#2b4023" d="M243.32 295.7c-10.5-12.252-21.957-23.03-32.508-35.21-2.905-3.353-6.254-6.109-9.217-9.755 3.261.274 37.388 35.2 42.352 40.105 1.341 1.326 2.727 3.554 4.682 4.605-2.14.516-3.067.352-5.31.254z"/>
  <path fill="#e7d09b" d="M159.291 245.815c5.273-1.86 12.29-4.372 17.714-5.156l1.556 9.264c.816 4.602 1.614 9.27 2.955 13.752l.854 3.13c-21.23 6.892-40.195 13.725-59.545 25.293-3.784 2.262-9.404 5.453-12.257 8.787l-.199.791-5.162.097c-6.408-.002-12.75-.49-19.174-.44l-10.418-.723c-1.512.225-5.397-.268-7.216-.38 1.493-13.88 12.345-20.675 22.903-27.927 3.044-1.562 6.418-2.74 9.625-3.962l2.128-.829c6.651-4.69 18.628-9.46 26.446-12.588 1.277-.65 2.576-1.26 3.868-1.879 6.01-2.768 13.925-6.262 20.145-8.246l1.95-.936c1.854-.607 1.75-.406 2.397-1.904l.522.42c.308 1.14.633 2.288.908 3.436z"/>
  <path fill="#e7d09b" d="M159.291 245.815c5.273-1.86 12.29-4.372 17.714-5.156l1.556 9.264-.472.162c-9.299 3.115-19.484 4.723-28.805 8.09-16.513 5.962-32.878 12.42-49.325 18.576-3.413 1.277-14.485 8.05-17.096 6.797-4.72 3.001-13.467 10.176-9.853 16.326 1.14.655 1.272.564 2.605.736-1.512.225-5.397-.268-7.216-.38 1.493-13.88 12.345-20.675 22.903-27.927 3.044-1.562 6.418-2.74 9.625-3.962l2.128-.829c6.651-4.69 18.628-9.46 26.446-12.588 1.277-.65 2.576-1.26 3.868-1.879 6.01-2.768 13.925-6.262 20.145-8.246l1.95-.936c1.854-.607 1.75-.406 2.397-1.904l.522.42c.308 1.14.633 2.288.908 3.436z"/>
  <path fill="#916618" d="m157.861 241.96.522.418c.308 1.141.633 2.29.908 3.437-23.475 8.701-55.892 22.911-76.428 37.733-4.72 3.001-13.467 10.176-9.853 16.326 1.14.655 1.272.564 2.605.736-1.512.225-5.397-.268-7.216-.38 1.493-13.88 12.345-20.675 22.903-27.927 3.044-1.562 6.418-2.74 9.625-3.962l2.128-.829c6.651-4.69 18.628-9.46 26.446-12.588 1.277-.65 2.576-1.26 3.868-1.879 6.01-2.768 13.925-6.262 20.145-8.246l1.95-.936c1.854-.607 1.75-.406 2.397-1.904z"/>
  <path fill="#be9537" d="m181.516 263.675.854 3.13c-21.23 6.892-40.195 13.725-59.545 25.293-3.784 2.262-9.404 5.453-12.257 8.787l-.199.791-5.162.097c18.901-18.549 51.357-30.38 76.31-38.098z"/>
  <path fill="#e7d09b" d="m110.37 301.676.198-.79c2.853-3.335 8.473-6.526 12.257-8.788 19.35-11.568 38.314-18.4 59.545-25.294 1.795 7.16 5.584 15.317 8.586 22.155-14.092 4.201-26.742 6.771-41.156 11.392-8.9 1.108-29.592 1.297-39.43 1.325z"/>
  <path fill="#1d271b" d="m479.598 270.681 2.24-.124 1.66.522-.098.36c-3.563.756-7.78.928-10.895 1.965l-.24.61c-36.928 5.793-74.542 10.015-111.7 13.967-76.636 8.151-153.93 14.256-230.985 15.874-14.493.304-32.183 1.151-46.429-.54 2.012-.07 3.02-.079 4.975-.454-4.283-.022-10.358.242-14.176-1.324 2.838-.629 5.847.891 11.48-.094l.603-.11c6.424-.05 12.766.438 19.174.44l5.162-.097c9.84-.028 30.531-.217 39.431-1.325 14.414-4.62 27.064-7.19 41.156-11.392 1.111 2.133 2.191 4.256 3.395 6.34l1.342 2.772c1.245.231 2.052.445 3.324.474 2.526.324 13.063-.583 16.172-.819l28.13-2.027c2.243.098 3.17.262 5.31-.254l26.87-2.174c2.848-.225 5.596-.416 8.433-.802l30.104-2.636c1.448-.043 2.307-.202 3.712-.434 13.467-1.616 26.99-2.762 40.49-4.045 2.297-.218 4.59-.443 6.898-.436l1.496-.438c10.188-1.055 20.492-1.935 30.648-3.168 2.253-.036 4.696-.238 6.868-.816 25.424-2.955 50.101-6.29 75.45-9.815z"/>
  <path fill="#a57a28" d="M190.956 288.96c1.111 2.132 2.191 4.255 3.395 6.338-3.002.492-17.705 2.585-19.219 3.691l.233.355c-2.752.767-22.387 1.642-25.565 1.007 14.414-4.62 27.064-7.19 41.156-11.392z"/>
  <path fill="#e7d09b" d="m194.351 295.298 1.342 2.773c-2.91 1.01-16.517 1.172-20.328 1.273l-.233-.355c1.514-1.106 16.217-3.199 19.22-3.69z"/>
  <path fill="#617175" d="M68.4 300.23c-6.978-.837-26.17-2.33-30.082-7.859-.125-1.07-.29-1.97.695-2.74 12.654-9.879 33.503-19.076 48.543-21.4.831 2.462 1.224 2.992 3.746 4.072-10.558 7.252-21.41 14.047-22.903 27.926z"/>
  <path fill="#49585c" d="m701.533 201.604.662.094c14.79 1.961 31.823.38 46.26 6.776-2.877 2.373-5.392 3.927-8.704 5.61-5.13 2.605-29.23 11.793-33.577 11.736l-.62-.91c.03-8.427-1.327-15.386-4.02-23.306z"/>
  <path fill="#f2f2f1" d="M80.367 262.893c.844 1.568 1.158 2.25 1.027 4.157-3.87.981-8.52 2.014-12.173 3.46-11.742 2.788-39.924 15.162-47.568 25.988-3.013 4.265-.21 8.633 2.39 12.472l-2.052-.684c-13.836-4.58-6.538-14.824 1.654-20.717 16.74-12.04 37.18-18.73 56.722-24.676z"/>
  <defs>
    <linearGradient id="n" x1="140.369" x2="147.95" y1="313.627" y2="272.312" gradientTransform="translate(-78.749 -12.256)" gradientUnits="userSpaceOnUse">
      <stop offset="0" stop-color="#090D0B"/>
      <stop offset="1" stop-color="#283332"/>
    </linearGradient>
  </defs>
  <path fill="url(#n)" d="M80.367 262.893c3.675-1.176 7.477-2.34 11.108-3.612l4.237 4.721 2.623 2.531c.86.587 1.77 1.177 2.592 1.808-3.207 1.221-6.58 2.4-9.625 3.962-2.522-1.08-2.915-1.61-3.746-4.073-15.04 2.325-35.889 11.522-48.543 21.401-.986.77-.82 1.67-.695 2.74 3.912 5.53 23.104 7.022 30.081 7.858 1.82.113 5.704.606 7.216.381l10.418.723-.604.11c-5.632.985-8.64-.535-11.479.094 3.818 1.566 9.893 1.302 14.176 1.324-1.956.375-2.963.383-4.975.453-5.432.074-51.967-1.473-47.667-13.092 3.203-8.654 29.098-15.24 38.633-20.052l-.189-.463c-1.72.43-2.94.74-4.707.802 3.653-1.445 8.302-2.478 12.173-3.459.131-1.908-.183-2.589-1.027-4.157z"/>
  <path fill="#718185" d="M80.367 262.893c3.675-1.176 7.477-2.34 11.108-3.612l4.237 4.721c-5.26.544-9.54 2.32-14.318 3.048.131-1.908-.183-2.589-1.027-4.157z"/>
  <path fill="#49585c" d="M98.335 266.533c.86.587 1.77 1.177 2.592 1.808-3.207 1.221-6.58 2.4-9.625 3.962-2.522-1.08-2.915-1.61-3.746-4.073 3.917-.773 6.82-1.253 10.78-1.697z"/>
  <path fill="#f2f2f1" d="M695.804 185.877c1.564-.088 3.171-.317 4.653.086 20.018 1.621 113.71 8.703 49.301 38.812-2.205 1.03-4.54 2.23-6.797 3.1l-.236-.34c4.361-3.954 10-6.228 14.7-9.726 3.286-2.446 6.52-5.6 7.021-9.87.276-2.35.036-4.57-1.584-6.394-8.482-9.542-52.523-12.283-65.793-12.804-.232-.773-.9-2.08-1.265-2.864z"/>
  <path fill="#1d271b" d="m677.508 234.195.621.073 3.744.74c-14.035 3.204-30.838 7.996-44.425 10.511-28.633 6.2-57.639 11.985-86.585 16.462-10.493 1.623-25.783 4.573-36.21 5.48l-.544-1.584 1.511-.337c6.766-1.71 19.403-3.176 26.701-4.203 1.518.011 3.77-.453 5.345-.72 8.528-2.146 25.232-4.539 34.438-6.17 1.144-.152 2.931-.582 4.116-.832 3.702-1.019 9.826-1.828 13.782-2.469 2.424-.259 4.225-.625 6.595-1.097 9.286-2.303 20.964-4.443 30.353-6.27l.454-.16c1.526-.156 4.178-.705 5.78-.98 4.518-1.439 11.328-2.805 16.095-3.909l3.244-.635c4.447-1.464 10.351-2.755 14.985-3.9z"/>
  <path fill="#0c0b0a" d="M700.437 197.888c7.164.874 48.4 3.41 49.161 11.145-3.086 9.666-56.818 23.154-67.725 25.974l-3.744-.739 2.453-.73c7.313-1.958 15.604-4.554 22.866-6.22 1.84-1.236 1.18-.449 2.105-2.408l.621.91c4.346.057 28.446-9.13 33.577-11.737 3.312-1.682 5.827-3.236 8.703-5.609-14.436-6.397-31.469-4.815-46.259-6.776l-.662-.094z"/>
  <path fill="#1d271b" d="m512.212 265.88 1.897-.003.543 1.583c-7.378 1.653-17.719 2.653-25.402 3.981-3.08.532-14.498 2.452-16.985 2.573l.24-.61c3.115-1.037 7.332-1.209 10.895-1.966l.097-.359-1.66-.522 2.788-.519c8.056-1.182 20.116-2.429 27.587-4.158z"/>
  <path fill="#49585c" d="M766.726 218.238c2.79-2.699 4.672-4.433 6.994-7.514 1.227 15.878.373 32.997-.347 48.814-.62 13.665.088 31.971-9.713 42.49-10.236 10.984-29.732 18.746-43.773 23.853-10.433 6.018-43.107 14.923-55.209 18.28-56.725 16.5-119.056 26.437-177.656 35.41-108.213 16.566-219.532 27.127-329.107 26.404-5.767-.038-40.269-1.475-44.557-2.999-3.885-.41-24.76-3.156-28.108-4.133-12.57-2.13-29.412-4.12-39.95-12.389-11.642-9.132-16.743-35.739-22.019-49.436-3.23-8.382-8.92-24.079-10.06-31.905 1.852 1.79 5.135 4.3 7.24 5.978l8.31 2.382c34.305 5.66 59.162 5.543 93.748 5.846 61.405.54 120.403-4.158 181.396-9.34 76.888-6.535 152.49-15.05 228.765-27.06 59.515-9.373 116.842-20.363 174.564-38.095 19.143-5.99 42.547-15.756 59.482-26.586z"/>
  <path fill="#617175" d="M766.726 218.238c2.79-2.699 4.672-4.433 6.994-7.514 1.227 15.878.373 32.997-.347 48.814-.62 13.665.088 31.971-9.713 42.49-10.236 10.984-29.732 18.746-43.773 23.853-10.433 6.018-43.107 14.923-55.209 18.28-.158-16.804 22.426-64.835 31.226-81.269 3.222-6.018 7.757-12.329 11.34-18.068 19.143-5.99 42.547-15.756 59.482-26.586z"/>
  <path fill="#f2f2f1" d="M766.726 218.238c2.79-2.699 4.672-4.433 6.994-7.514 1.227 15.878.373 32.997-.347 48.814-.62 13.665.088 31.971-9.713 42.49-10.236 10.984-29.732 18.746-43.773 23.853l-.182-.319c1.716-2.084 25.574-11.069 33.594-19.432 13.335-13.903 13.762-68.42 13.427-87.892z"/>
  <path fill="#718185" d="M13.22 305.113c1.853 1.79 5.136 4.3 7.24 5.978l8.311 2.382c1.737 4.49 7.194 13.088 10.036 17.426 17.195 26.247 38.937 53.757 67.771 67.506 2.02.963 6.734 2.231 7.952 3.435l-.327.792-.845.344c-3.885-.41-24.76-3.156-28.108-4.133-12.57-2.13-29.412-4.12-39.95-12.389-11.642-9.132-16.743-35.739-22.019-49.436-3.23-8.382-8.92-24.079-10.06-31.905z"/>
  <path fill="#f2f2f1" d="M13.22 305.113c1.853 1.79 5.136 4.3 7.24 5.978 3.02 11.756 7.185 23.29 11.058 34.493 6.485 18.767 12.433 30.287 30.001 40.61 5.812 3.413 19.531 9.382 23.731 12.65-12.57-2.13-29.412-4.122-39.95-12.39-11.642-9.132-16.743-35.739-22.019-49.436-3.23-8.382-8.92-24.079-10.06-31.905z"/>
  <defs>
    <linearGradient id="o" x1="575.236" x2="542.174" y1="979.156" y2="854.074" gradientTransform="translate(-78.749 -12.256)" gradientUnits="userSpaceOnUse">
      <stop offset="0" stop-color="#516269"/>
      <stop offset="1" stop-color="#667678"/>
    </linearGradient>
  </defs>
  <path fill="url(#o)" d="M721.474 835.98c5.948 32.814 4.731 51.081-19.553 76.291-3 3.12-4.454 4.487-7.85 7.137-3.895 4.41-21.253 14.101-27.366 17.07C599.5 969.1 522.721 981.473 448.69 986.022c-11.529.71-44.985 2.781-56.066.772-5.375.043-10.907-.27-16.29-.497-18.927-.463-38.96-3.726-57.598-6.906-23.909-4.442-59.929-13.82-77.752-30.539-10.91-10.235-19.018-28.94-19.392-43.724-.709-3.959-.94-6.609-.662-10.604 1.873 3.624 3.025 5.17 5.807 7.987 17.87 13.805 41.332 20.422 63.18 24.906 100.016 20.526 219.584 8.13 316.718-22.134 29.124-9.074 64.211-22.42 89.68-39.198 5.286-2.827 6.423-3.723 10.572-7.899 3.341-2.873 8.7-11.65 11.72-15.633.93-2.15 1.878-4.468 2.868-6.574z"/>
  <path fill="#414141" d="m261.758 956.475.585-1.435c6.505 1.367 13.05 3.393 19.56 4.533 79.943 13.997 163.307 8 243.084-4.272 37.914-5.833 76.187-14.04 112.773-25.604 21.926-6.93 43.976-15.81 63.352-28.289 2.918-1.886 7.845-7.878 10.63-8.46l.874.7c-3.57 7.226-6.962 12.284-12.287 18.43l1.592.193c-3 3.12-4.454 4.487-7.85 7.137-3.895 4.41-21.253 14.101-27.366 17.07C599.5 969.1 522.721 981.473 448.69 986.022c-11.529.71-44.985 2.781-56.066.772-5.375.043-10.907-.27-16.29-.497-18.927-.463-38.96-3.726-57.598-6.906-23.909-4.442-59.929-13.82-77.752-30.539-10.91-10.235-19.018-28.94-19.392-43.724-.709-3.959-.94-6.609-.662-10.604 1.873 3.624 3.025 5.17 5.807 7.987-.1 22.102 16.403 43.31 35.022 53.963z"/>
  <path fill="#b9c2c3" d="M221.591 905.13c-.709-3.96-.94-6.61-.662-10.605 1.873 3.624 3.025 5.17 5.807 7.987-.1 22.102 16.403 43.31 35.022 53.963 17.634 8.678 40.548 16.336 59.833 20.277l4.133 2.08-.509-.276.501.532c-1.613-.406-4.63-1.063-6.092-1.576l-.889 1.88c-23.909-4.442-59.929-13.82-77.752-30.539-10.91-10.235-19.018-28.94-19.392-43.724z"/>
  <path fill="#f2f2f1" d="M221.591 905.13c-.709-3.96-.94-6.61-.662-10.605 1.873 3.624 3.025 5.17 5.807 7.987-.1 22.102 16.403 43.31 35.022 53.963 17.634 8.678 40.548 16.336 59.833 20.277l4.133 2.08-.509-.276.501.532c-1.613-.406-4.63-1.063-6.092-1.576-19.532-3.948-35.179-8.99-53.669-16.779-21.833-9.196-30.228-21.04-39.833-42.608-1.765-3.965-2.864-8.704-4.53-12.996z"/>
  <defs>
    <linearGradient id="p" x1="427.005" x2="430.495" y1="985.952" y2="1002.548" gradientTransform="translate(-78.749 -12.256)" gradientUnits="userSpaceOnUse">
      <stop offset="0" stop-color="#C5D2CF"/>
      <stop offset="1" stop-color="#DEDBE7"/>
    </linearGradient>
  </defs>
  <path fill="url(#p)" d="M321.591 976.752c19.438 3.89 35.128 7.11 55.04 8.084l-.299 1.462c-18.926-.463-38.959-3.726-57.597-6.906l.89-1.88c1.461.513 4.478 1.17 6.091 1.576l-.5-.532.508.275z"/>
  <path fill="#b9c2c3" d="M376.631 984.836c3.018.187 18.044.928 19.928 1.546l-.232.201-.07-.448-.524.52-3.11.14c-5.375.043-10.907-.27-16.29-.497zm323.698-72.759 1.592.194c-3 3.12-4.454 4.487-7.85 7.137.51-1.59 4.896-5.905 6.258-7.33z"/>
  <path fill="#c3dff4" d="M721.474 835.98c5.948 32.814 4.731 51.081-19.553 76.291l-1.592-.194c5.325-6.145 8.717-11.203 12.287-18.429 1.85-2.797 3.746-8.763 4.791-11.987 4.333-13.373 4.801-25.508 1.198-39.107.93-2.15 1.88-4.468 2.87-6.574z"/>
  <path fill="#99423f" d="M76.725 400.7c2.116.353 3.763.496 5.907.674l2.01.544c4.555.55 8.49 1.13 13.005 1.937 11.243 1.216 22.143 2.907 33.445 3.774 1.277 6.345 2.64 11.66 4.327 17.92l89.751 323.6 29.64 106.321c3.33 12.05 6.663 24.087 10.363 36.027.761 2.455 1.484 4.931 2.007 7.45-.082 5.076.578 15.048 1.141 20.21-6.384-1.87-15.932-4.684-21.64-7.682-5.704-2.6-9.53-4.29-14.645-7.82-6.339-4.22-7.242-12.343-9.22-19.356l-6.509-22.375-27.226-91.72-80.05-264.679-21.519-68.898c-3.623-11.758-6.918-24.39-10.787-35.927z"/>
  <path fill="#c49681" d="M76.725 400.7c2.116.353 3.763.496 5.907.674l2.01.544c4.555.55 8.49 1.13 13.005 1.937.6 2.874 1.33 7.05 2.051 9.786l1.123 1.528c35.981 119.528 66.877 240.477 103.78 359.6l26.89 86.883c4.268 13.74 8.773 27.412 12.647 41.281.781 2.793 1.906 5.758 2.543 8.542-5.704-2.6-9.53-4.29-14.645-7.82-6.339-4.22-7.242-12.343-9.22-19.356l-6.509-22.375-27.226-91.72-80.05-264.679-21.519-68.898c-3.623-11.758-6.918-24.39-10.787-35.927z"/>
  <path fill="#eed1cb" d="M76.725 400.7c2.116.353 3.763.496 5.907.674.38 3.247 3.765 10.173 4.957 14.366 4.745 16.685 10.11 33.344 14.884 50.01l95.254 320.988c3.823 12.868 35.01 111.905 34.31 116.916-6.34-4.219-7.243-12.342-9.222-19.355l-6.508-22.375-27.226-91.72-80.05-264.679-21.519-68.898c-3.623-11.758-6.918-24.39-10.787-35.927z"/>
  <path fill="#99423f" d="M84.642 401.918c4.555.55 8.49 1.13 13.005 1.937.6 2.874 1.33 7.05 2.051 9.786-5.756-2.645-11.229-6.658-15.056-11.723z"/>
  <path fill="#872828" d="M97.647 403.855c11.243 1.216 22.143 2.907 33.445 3.774 1.277 6.345 2.64 11.66 4.327 17.92-6.3-1.923-29.72-9.754-34.598-10.38l-1.123-1.528c-.722-2.737-1.452-6.912-2.05-9.786z"/>
  <path fill="#e7d09b" d="M594.565 417.458c15.38-1.858 36.095 6.736 48.518 15.374 62.67 43.577 43.732 150.467-34.948 162.99l-.808.091c-19.862 2.041-40.48-5.508-55.317-18.72-53.523-47.663-37.139-153.388 42.555-159.735z"/>
  <path fill="#594923" d="M583.126 435.946c13.263-2.167 29.618 4.294 39.893 12.007 19.881 14.926 32.14 41.388 28.854 66.122-3.763 28.33-21.455 50.287-50.009 54.572l-1.73.225c-15.748 1.898-32.487-4.479-44.569-14.303-40.278-32.75-29.67-112.46 27.561-118.623z"/>
  <path fill="#1d271b" d="M599.536 470.812c.045-2.36-.002-4.732.506-7.082 2.318-10.71 14.012-14.05 21.42-5.76 4.655 5.21 6.754 12.537 6.64 19.461-.195 4.885-1.62 8.276-4.034 12.368 1.165 1.957 1.146 1.85 1.496 4.085.34 2.842.687 5.631.753 8.495.41 17.75-14.642 34.001-32.658 33.662-9.163-.172-17.702-3.63-24.1-10.24-10.743-11.1-13.336-29.979-4.372-42.889 1.352-1.946 3.044-3.507 4.788-5.116 5.294-6.444 22.031-10.623 29.561-6.984z"/>
  <path fill="#f2f2f1" d="M599.536 470.812c.045-2.36-.002-4.732.506-7.082 2.318-10.71 14.012-14.05 21.42-5.76 4.655 5.21 6.754 12.537 6.64 19.461-.195 4.885-1.62 8.276-4.034 12.368-3.367 3.13-4.797 3.44-9.139 4.445-10.676-2.96-14.728-13.309-15.393-23.432z"/>
  <path fill="#0c0b0a" d="M625.564 493.884c.34 2.842.687 5.631.753 8.495.41 17.75-14.642 34.001-32.658 33.662-9.163-.172-17.702-3.63-24.1-10.24-10.743-11.1-13.336-29.979-4.372-42.889 1.352-1.946 3.044-3.507 4.788-5.116-.876 2.933-2.299 5.813-2.855 8.802-7.584 40.78 42.98 55.204 56.532 16.923 1.051-2.97.173-7.43 1.184-9.422z"/>
  <path fill="#e7d09b" d="M265.124 457.97c46.352-1.23 83.02 43.821 88.1 87.131 5.257 44.808-25.285 84.194-70.647 89.115-48.133 1.157-86.283-38.182-89.126-85.226-2.616-43.278 25.866-88.16 71.673-91.02z"/>
  <path fill="#594923" d="M273.036 473.914c14.27-1.652 27.884 2.282 39.69 10.074 46.385 30.611 40.452 110.771-18.71 121.683-15.82 2.186-30.82-2.17-43.659-11.565-31.672-23.173-37.21-76.475-8.932-104.387 8.774-8.66 19.45-14.133 31.611-15.805z"/>
  <path fill="#1d271b" d="M307.528 530.203c1.912 8.784 3.112 15.122.247 24.002-4.979 14.24-19.43 23.165-34.57 18.435-31.514-9.845-30.3-58.103 4.288-61.673 5.602-.579 10.624 1.36 15.906 3.418 3.107 7.792 6.225 12.156 14.13 15.818z"/>
  <path fill="#f2f2f1" d="M293.4 514.385c-1.1-4.774-.883-11.882 2.18-15.752 22.845-28.877 45.127 33.98 11.948 31.57-7.904-3.662-11.022-8.026-14.129-15.818z"/>
  <path fill="#9e6f5c" d="M329.408 402.735c2.69-1.09 23.19-2.575 27.078-2.916 24.82-2.175 49.4-5.17 74.127-8.167.363 12.824 2.246 27.191 3.11 40.28 3.292 47.425 8.892 95.905 16.618 142.785 1.885 11.437 3.51 23.613 5.928 34.872-27.49 2.035-61.288 11.436-86.938 21.585-3.253 1.205-7.046 2.586-9.857 4.658-1.842-12.92-6.034-35.61-9.9-47.989 2.852-8.937 4.901-15.399 6.581-24.679 2.811-22.86-1.748-35.113-8.11-56.218l.643-.842c.078-6.338-3.634-22.09-5.08-29.23l-9.687-48.239c-1.684-8.38-2.994-17.396-4.513-25.9z"/>
  <path fill="#7c5219" d="M329.408 402.735c2.69-1.09 23.19-2.575 27.078-2.916 24.82-2.175 49.4-5.17 74.127-8.167.363 12.824 2.246 27.191 3.11 40.28-28.028-5.487-50.934-8.01-79.879-6.092-3.847.255-17.975.623-19.923 2.795-1.684-8.38-2.994-17.396-4.513-25.9z"/>
  <path fill="#99423f" d="M356.155 563.164c6.086 11.41 8.108 43.601 11.503 57.616.643 2.655.744 6.904 1.673 10.394-3.253 1.205-7.046 2.586-9.857 4.658-1.842-12.92-6.034-35.61-9.9-47.989 2.852-8.937 4.901-15.399 6.581-24.679z"/>
  <path fill="#617175" d="M752.367 351.737c1.872.854 2.582 1.098 4.183 2.333 73.205 30.236 116.878 114.018 90.046 190.558-1.089 7.67-7.308 18.782-13.235 24.195-5.972 1.083-10.764 1.852-16.488-1.307-8.355-5.2-13.668-11.454-19.817-18.857-16.973-20.307-33.092-46.61-43.046-71.38-.705-1.757-2.475-6.846-1.712-8.44l-.57.201.086-.559 1.368 1.345c.877-.867-2.874-12.616-3.005-15.652-1.187-27.654-.912-55.459 1.514-83.044-.015-6.444.372-12.95.676-19.393z"/>
  <path fill="#414141" d="M751.691 371.13c.378 31.58 20.778 73.525 37.626 99.931 6.803 10.661 17.994 23.395 26.861 32.49 9.587 9.833 14.94 10.85 26.59 15.747-4.077 16.916-8.744 30.15-19.21 44.173l-2.099 1.831c-1.399-1.53-.569-1.019-2.603-1.556-2.126 1.054-1.92 1.468-1.983 3.77-8.355-5.2-13.668-11.454-19.817-18.857-16.973-20.307-33.092-46.61-43.046-71.38-.705-1.757-2.475-6.846-1.712-8.44l-.57.201.086-.559 1.368 1.345c.877-.867-2.874-12.616-3.005-15.652-1.187-27.654-.912-55.459 1.514-83.044z"/>
  <path fill="#414141" d="m797.056 548.66.783-2.022c2.27-.22 11.458 8.241 14.464 9.807 2.71 1.411 7.946 3.274 10.16 4.816l1.094 2.21-2.098 1.831c-1.399-1.53-.569-1.019-2.603-1.556-2.126 1.054-1.92 1.468-1.983 3.77-8.355-5.2-13.668-11.454-19.817-18.857z"/>
  <path fill="#f2f2f1" d="M756.55 354.07c73.205 30.236 116.878 114.018 90.046 190.558-1.089 7.67-7.308 18.782-13.235 24.195-5.972 1.083-10.764 1.852-16.488-1.307.062-2.302-.143-2.716 1.983-3.77 2.034.537 1.204.025 2.603 1.556l2.098-1.83c10.467-14.025 15.134-27.258 19.21-44.174 1.972-11.913 2.173-17.997 2.426-29.925-.942-7.833-.924-14.87-2.195-23.556-1.996-9.045-4.307-17.692-7.395-26.422-.88-2.49-2.552-6.665-2.639-9.202-9.478-24.49-46.74-58.944-69.612-71.472-1.665-.912-6.02-3.186-6.802-4.65z"/>
  <defs>
    <linearGradient id="q" x1="900.627" x2="933.373" y1="525.545" y2="542.765" gradientTransform="translate(-78.749 -12.256)" gradientUnits="userSpaceOnUse">
      <stop offset="0" stop-color="#1D2020"/>
      <stop offset="1" stop-color="#4A5D60"/>
    </linearGradient>
  </defs>
  <path fill="url(#q)" d="m842.998 465.817.808.303c.253 1.476.406 2.505.551 3.99 1.154.517 1.287.393 2.584.365-.01-1.375-.095-1.532.165-2.847 6.124 20.978 4.73 46.716.534 67.95-.42 2.126-1.843 7.1-1.409 8.886l.365.164c-1.089 7.67-7.308 18.782-13.235 24.195-5.972 1.083-10.764 1.852-16.488-1.307.062-2.302-.143-2.716 1.983-3.77 2.034.537 1.204.025 2.603 1.556l2.098-1.83c10.467-14.025 15.134-27.258 19.21-44.174 1.972-11.913 2.173-17.997 2.426-29.925-.942-7.833-.924-14.87-2.195-23.556z"/>
  <path fill="#0c0b0a" d="m845.193 489.373.408-6.093.62 4.601c.602-1.525.605-2.343.778-3.947.594 1.715.426 6.458.633 8.44 1.856 17.73-7.258 66.463-26.202 73.708l-.178-.452.207-.328 2.098-1.83c10.467-14.025 15.134-27.258 19.21-44.174 1.972-11.913 2.173-17.997 2.426-29.925zm-2.195-23.556c-1.996-9.045-4.307-17.692-7.395-26.422-.88-2.49-2.552-6.665-2.639-9.202 4.075 7.923 13.492 29.01 14.142 37.435-.26 1.315-.175 1.472-.165 2.847-1.297.028-1.43.152-2.584-.365a49.993 49.993 0 0 0-.55-3.99z"/>
  <path fill="#617175" d="M41.523 645.507c-21.097-22.496-29.936-57.41-29.143-87.518 1.207-45.82 20.616-89.36 53.998-120.786 2.491-2.345 11.265-11.036 13.882-10.977 3.577 10.482 9 31.007 11.668 41.868 3.788 24.794 13.36 49.367 17.988 74.057 1.288 6.866-2.233 17.472-3.43 24.377-6.539 27.057-14.332 54.97-29.86 78.396-3.288 4.961-8.412 9.278-14.32 10.741-5.882 1.456-17.933-5.09-20.783-10.158z"/>
  <path fill="#414141" d="M91.928 468.094c3.788 24.794 13.36 49.367 17.988 74.057 1.288 6.866-2.233 17.472-3.43 24.377-6.539 27.057-14.332 54.97-29.86 78.396-3.288 4.961-8.412 9.278-14.32 10.741-5.882 1.456-17.933-5.09-20.783-10.158.014-.782-9.5-16.656-10.932-19.868-4.742-10.505-7.352-17.646-10.104-29.046l.674-.575c.822.875 1.084 1.28 1.768 2.276 3.391 1.393 2.75 12.952 10.89 13.283 15.81.643 26.811-12.276 32.484-25.615 11.025-25.928 15.648-54.13 20.64-81.683 1.847-10.569 4.77-25.539 4.985-36.185z"/>
  <path fill="#0c0b0a" d="m20.487 596.593.674-.575c.822.875 1.084 1.28 1.768 2.276.383 2.971 3.582 8.634 4.848 11.576 7.22 16.776 14.756 27.964 29.524 39.31l1.928 1.457c-7.249-3.504-12.399-5.904-18.027-12.042-3.864-4.214-6.099-10.298-10.61-12.956-4.743-10.505-7.353-17.646-10.105-29.046z"/>
  <path fill="#f2f2f1" d="M41.523 645.507c-21.097-22.496-29.936-57.41-29.143-87.518 1.207-45.82 20.616-89.36 53.998-120.786 2.491-2.345 11.265-11.036 13.882-10.977-.839 3.421-11.064 11.988-14.155 15.245-31.33 33.012-49.144 73.08-49.43 118.983-.053 8.284.59 29.303 3.812 36.14 2.752 11.4 5.362 18.54 10.104 29.045 1.432 3.212 10.946 19.086 10.932 19.868z"/>
  <path fill="#302326" d="M526.135 610.448c5.527-.373 9.691-1.31 11.382 5.173 5.536 21.228.655 50.89-9.324 70.155-22.808-22.072-59.174-25.52-88.906-18.276-17.049 4.154-38.944 14.18-48.962 29.464-3.025 4.616-1.84 11.597-3.414 14.237l-.98-.59c-7.637-6.86-15.574-14.683-20.556-23.742-7.298-13.272-15.176-28.606-16.347-43.816 18.051-3.652 37.315-9.709 55.683-13.708 39.543-8.61 81.073-15.766 121.424-18.897z"/>
  <path fill="#99423f" d="M390.48 713.06c-.435-5.37-.717-12.586 3.266-16.683 31.743-32.654 95.497-39.236 130.524-8.42l1.543.827c-.21 2.375-5.434 9.947-7.036 12.222-18.59 26.4-45.459 35.73-76.91 32.924l-.902-.088c-15.307-1.278-39.297-10.288-50.485-20.782z"/>
  <path fill="#d76560" d="M440.965 733.842c5.417-37.87 38.901-59.837 75.491-47.976 1.998.647 4.877 1.568 6.862 1.927l.952.164 1.543.827c-.21 2.375-5.434 9.947-7.036 12.222-18.59 26.4-45.459 35.73-76.91 32.924z"/>
  <path fill="#872828" d="M223.18 408.68c13.334.067 26.855-1.119 40.166-1.982l37.577-2.152c4.022-.263 22.895-2.01 25.062-1.63 1.584 8.522 3.455 20.435 5.53 28.623 2.394 11.47 13.296 68.821 17.173 74.565l-.643.842c-18.14-37.89-49.792-70.764-96.41-58.003-2.737.75-15.682 6.733-17.056 6.588l-.842-1.338c.056-2.14-.91-4.928-1.497-7.026-3.562-12.758-6.806-25.426-9.06-38.487z"/>
  <path fill="#99423f" d="M233.737 454.193c6.57-8.988 21.853-18.063 32.514-20.806 18.518-4.764 46.478-6.147 65.263-1.848 2.395 11.47 13.297 68.821 17.174 74.565l-.643.842c-18.14-37.89-49.792-70.764-96.41-58.003-2.737.75-15.682 6.733-17.056 6.588z"/>
  <path fill="#467837" d="M103.055 267.512c-2.666-5.675-6.926-11.682-10.144-17.216-10.233-17.596-13.654-34.365-10.509-54.623 1.805-8.752 3.642-22.115 10.368-28.519 2.723-2.592 8.11 1.201 9.96 3.977a349.914 349.914 0 0 1 9.816 8.345c-.255-1.352-.258-1.11-.898-2.273l.352-.585c2.62.847 15.843 17.56 19.557 20.25.326.236 1.534-.01 1.893-.098 1.473 1.724 2.5 3.538 3.694 5.464 1.346 2.221 2.59 4.423 4.197 6.46 7.692 11.02 11.698 20.945 16.52 33.265-.648 1.498-.543 1.297-2.398 1.904l-1.949.936c-6.22 1.984-14.135 5.478-20.145 8.246-1.292.62-2.59 1.23-3.868 1.88-7.818 3.127-19.795 7.896-26.446 12.587z"/>
  <path fill="#96c685" d="M153.514 244.8c-9.666-22.423-25.779-47.466-44.292-63.659-3.657-3.199-9.057-6.413-13.24-9.168.585-1.328.3-.737 1.796-1.754 1.836-.386 3.13.3 4.952.912a349.914 349.914 0 0 1 9.816 8.345c-.255-1.352-.258-1.11-.898-2.273l.352-.585c2.62.847 15.843 17.56 19.557 20.25.326.236 1.534-.01 1.893-.098 1.473 1.724 2.5 3.538 3.694 5.464 1.346 2.221 2.59 4.423 4.197 6.46 7.692 11.02 11.698 20.945 16.52 33.265-.648 1.498-.543 1.297-2.398 1.904z"/>
  <path fill="#1d271b" d="M112.546 179.476c-.255-1.352-.258-1.11-.898-2.273l.352-.585c2.62.847 15.843 17.56 19.557 20.25.326.236 1.534-.01 1.893-.098 1.473 1.724 2.5 3.538 3.694 5.464 1.346 2.221 2.59 4.423 4.197 6.46 7.692 11.02 11.698 20.945 16.52 33.265-.648 1.498-.543 1.297-2.398 1.904-2.909-6.093-5.234-11.905-8.368-18.054-9.394-18.429-20.556-31.54-34.549-46.333z"/>
  <path fill="#2b4023" d="M129.501 254.924c-6.784-13.788-25.23-52.178-27.715-66.48l18.765 39.184c2.504 5.315 9.58 21.165 12.818 25.417-1.292.62-2.59 1.23-3.868 1.88z"/>
  <path fill="#872828" d="m536.95 376.615.652-1.02c31.177-6.577 62.591-11.18 93.537-19.275l.424 34.068c.096 4.961.55 17.973-.085 22.498-1.609.21-1.4-.01-3.144-.702-36.918-11.635-67.216-7.389-92.834 23.756-.41-2.053-.355-2.164.037-4.264 2.465-6.172 2.203-13.039 2.243-19.616.31-9.508.107-26.485-.83-35.445z"/>
  <path fill="#d76560" d="M537.78 412.06c.78-1.515 1.41-1.982 2.54-3.186 11.22-11.955 31.117-18.49 47.267-18.624 17.083-.14 27.864 4.53 39.867 16.241.58 2.48.767 3.19.88 5.693-36.918-11.635-67.216-7.389-92.834 23.756-.41-2.053-.355-2.164.037-4.264 2.465-6.172 2.203-13.039 2.243-19.616z"/>
</svg>
